<svg width="40" height="40" viewBox="0 0 40 40" fill="none" xmlns="http://www.w3.org/2000/svg">
<path d="M24.5 10.8242C22.76 10.8242 21.09 11.6342 20 12.9142C18.91 11.6342 17.24 10.8242 15.5 10.8242C12.42 10.8242 10 13.2442 10 16.3242C10 20.1042 13.4 23.1842 18.55 27.8642L20 29.1742L21.45 27.8542C26.6 23.1842 30 20.1042 30 16.3242C30 13.2442 27.58 10.8242 24.5 10.8242ZM20.1 26.3742L20 26.4742L19.9 26.3742C15.14 22.0642 12 19.2142 12 16.3242C12 14.3242 13.5 12.8242 15.5 12.8242C17.04 12.8242 18.54 13.8142 19.07 15.1842H20.94C21.46 13.8142 22.96 12.8242 24.5 12.8242C26.5 12.8242 28 14.3242 28 16.3242C28 19.2142 24.86 22.0642 20.1 26.3742Z" fill="url(#paint0_linear_5055_29529)"/>
<defs>
<linearGradient id="paint0_linear_5055_29529" x1="-26.3655" y1="-15.8398" x2="46.9051" y2="-30.1438" gradientUnits="userSpaceOnUse">
<stop offset="0.297847" stop-color="#009BA2"/>
<stop offset="0.634591" stop-color="#BC658D"/>
</linearGradient>
</defs>
</svg>
