<svg xmlns="http://www.w3.org/2000/svg" viewBox="0 0 184 5.01"><defs><style>.cls-1{fill:#2c333a;}</style></defs><g id="Layer_2" data-name="Layer 2"><g id="Layer_1-2" data-name="Layer 1"><path class="cls-1" d="M71.16,3.39C59.46,3.39,7.42,2.84,0,2.53c7.67-.21,59.46-.88,71.16-.88a128.89,128.89,0,0,1,18,.88A130.42,130.42,0,0,1,71.16,3.39Z"/><path class="cls-1" d="M115.16,3.39c11.26,0,61.67-.55,68.84-.86-7.41-.21-57.58-.88-68.84-.88a121,121,0,0,0-17.44.88A122.39,122.39,0,0,0,115.16,3.39Z"/><path class="cls-1" d="M90.51,2.5a2.55,2.55,0,0,1,.42-1.39A2.54,2.54,0,0,1,92.06.19a2.51,2.51,0,0,1,2.72.54A2.54,2.54,0,0,1,95.47,2a2.46,2.46,0,0,1-.14,1.44,2.42,2.42,0,0,1-.93,1.12A2.45,2.45,0,0,1,93,5a2.52,2.52,0,0,1-1.77-.74A2.49,2.49,0,0,1,90.51,2.5Z"/></g></g></svg>