<svg width="23" height="23" viewBox="0 0 23 23" fill="none" xmlns="http://www.w3.org/2000/svg">
<g clip-path="url(#clip0_3110_4398)">
<path fill-rule="evenodd" clip-rule="evenodd" d="M0.659668 11.821C0.659668 17.3744 4.69305 21.9924 9.96818 22.9288V14.8611H7.17563V11.7586H9.96818V9.27601C9.96818 6.48346 11.7675 4.93266 14.3125 4.93266C15.1186 4.93266 15.988 5.05646 16.7941 5.18027V8.03519H15.3671C14.0016 8.03519 13.6916 8.7175 13.6916 9.58692V11.7586H16.6703L16.1742 14.8611H13.6916V22.9288C18.9667 21.9924 23.0001 17.3753 23.0001 11.821C23.0001 5.6429 17.9735 0.588379 11.8299 0.588379C5.68626 0.588379 0.659668 5.6429 0.659668 11.821Z" fill="#4267B2"/>
</g>
<defs>
<clipPath id="clip0_3110_4398">
<rect width="22.3404" height="22.3404" fill="white" transform="translate(0.659668 0.588379)"/>
</clipPath>
</defs>
</svg>
