<svg xmlns="http://www.w3.org/2000/svg" viewBox="0 0 48 48"><defs><style>.cls-1{fill:none;}.cls-2{fill:#009ba2;}</style></defs><g id="Layer_2" data-name="Layer 2"><g id="Layer_1-2" data-name="Layer 1"><rect class="cls-1" width="48" height="48"/><path class="cls-2" d="M23.79,43.76H11.53a9.75,9.75,0,0,1-6.87-2.63,9,9,0,0,1-2.9-5.48,17.57,17.57,0,0,1-.14-2.17c0-6.54,0-13.08,0-19.63A9.56,9.56,0,0,1,4.34,6.93a9,9,0,0,1,5.45-2.8,14.52,14.52,0,0,1,1.48-.08H24.38a2.05,2.05,0,1,1,.23,4.1H11.42a5.4,5.4,0,0,0-3.22.91,5.11,5.11,0,0,0-2.35,3.87c0,.53-.07,1.06-.07,1.59V34a5.22,5.22,0,0,0,.9,3.18,5.12,5.12,0,0,0,3.91,2.36c.43,0,.86.06,1.29.06H36.17a5.46,5.46,0,0,0,3-.73,5.38,5.38,0,0,0,2.68-4.8V24.63a2.06,2.06,0,0,1,4.09-.4,5.14,5.14,0,0,1,.07.88C46,28,46,31,46,33.88a9.84,9.84,0,0,1-.7,3.9,9.7,9.7,0,0,1-5.37,5.28,10.18,10.18,0,0,1-4,.7C31.89,43.77,27.84,43.76,23.79,43.76Z"/><path class="cls-2" d="M38.46,8.15H34.19a2.06,2.06,0,0,1-.45-4.06,2.89,2.89,0,0,1,.66,0c3.1,0,6.19,0,9.29,0A2.22,2.22,0,0,1,46,6.36c0,2.91,0,5.83,0,8.74a2.16,2.16,0,0,1-1.47,2.24,2.07,2.07,0,0,1-2.69-1.88c0-1.38,0-2.77,0-4.15v-.47a3.3,3.3,0,0,0-.3.21l-7.78,7.17-7.6,7a2.14,2.14,0,0,1-2.74.39,2.08,2.08,0,0,1-.22-3.31l9.76-9,5.27-4.83a2.91,2.91,0,0,1,.35-.2Z"/></g></g></svg>