<svg width="41" height="30" viewBox="0 0 41 30" fill="none" xmlns="http://www.w3.org/2000/svg">
<path d="M4.25 0C3.25544 0 2.30161 0.395088 1.59835 1.09835C0.895088 1.80161 0.5 2.75544 0.5 3.75L0.5 26.25C0.5 27.2446 0.895088 28.1984 1.59835 28.9017C2.30161 29.6049 3.25544 30 4.25 30H36.75C37.7446 30 38.6984 29.6049 39.4016 28.9017C40.1049 28.1984 40.5 27.2446 40.5 26.25V3.75C40.5 2.75544 40.1049 1.80161 39.4016 1.09835C38.6984 0.395088 37.7446 0 36.75 0H4.25ZM36.75 2.5C37.0815 2.5 37.3995 2.6317 37.6339 2.86612C37.8683 3.10054 38 3.41848 38 3.75V18.75L28.5625 13.8825C28.3281 13.7651 28.0626 13.7243 27.8037 13.766C27.5449 13.8078 27.3057 13.9298 27.12 14.115L17.845 23.39L11.195 18.96C10.9549 18.8001 10.6669 18.7283 10.3798 18.7565C10.0928 18.7848 9.82433 18.9114 9.62 19.115L3.005 25V26.35C3.00201 26.3167 3.00034 26.2834 3 26.25V3.75C3 3.41848 3.1317 3.10054 3.36612 2.86612C3.60054 2.6317 3.91848 2.5 4.25 2.5H36.75Z" fill="#2C333A"/>
</svg>
