<svg width="56" height="56" viewBox="0 0 56 56" fill="none" xmlns="http://www.w3.org/2000/svg">
<path d="M48.8343 25.9159C48.8401 24.4474 48.4579 23.0036 47.7262 21.7304C46.9945 20.4573 45.9394 19.4001 44.6677 18.6659C44.699 18.3054 44.699 17.943 44.6677 17.5825C44.6677 15.9249 44.0092 14.3352 42.8371 13.1631C41.665 11.991 40.0753 11.3325 38.4177 11.3325H38.0427C37.6957 10.3707 37.1181 9.50863 36.3604 8.82199C35.6028 8.13536 34.6882 7.64509 33.697 7.3942C32.7057 7.1433 31.6681 7.13944 30.675 7.38294C29.6819 7.62644 28.7637 8.10988 28.001 8.79086C27.2382 8.10988 26.3201 7.62644 25.327 7.38294C24.3339 7.13944 23.2962 7.1433 22.305 7.3942C21.3137 7.64509 20.3992 8.13536 19.6415 8.82199C18.8839 9.50863 18.3062 10.3707 17.9593 11.3325H17.5843C15.9267 11.3325 14.337 11.991 13.1649 13.1631C11.9928 14.3352 11.3343 15.9249 11.3343 17.5825C11.303 17.943 11.303 18.3054 11.3343 18.6659C10.1519 19.3342 9.15084 20.2814 8.41815 21.425C7.68546 22.5686 7.2434 23.8739 7.13044 25.2274C7.01748 26.5809 7.23704 27.9414 7.77003 29.1907C8.30301 30.4399 9.13325 31.5399 10.1885 32.395C9.50572 33.6685 9.16581 35.0976 9.20212 36.5421C9.23843 37.9866 9.64972 39.3968 10.3956 40.6344C11.1415 41.8719 12.1964 42.8943 13.4567 43.6011C14.717 44.3079 16.1394 44.6748 17.5843 44.6659H17.9593C18.3062 45.6277 18.8839 46.4897 19.6415 47.1764C20.3992 47.863 21.3137 48.3533 22.305 48.6042C23.2962 48.8551 24.3339 48.8589 25.327 48.6154C26.3201 48.3719 27.2382 47.8885 28.001 47.2075C28.7637 47.8885 29.6819 48.3719 30.675 48.6154C31.6681 48.8589 32.7057 48.8551 33.697 48.6042C34.6882 48.3533 35.6028 47.863 36.3604 47.1764C37.1181 46.4897 37.6957 45.6277 38.0427 44.6659H38.4177C39.8538 44.6568 41.2631 44.2767 42.5091 43.5625C43.7551 42.8484 44.7953 41.8243 45.5289 40.5897C46.2626 39.3551 46.6647 37.9519 46.6963 36.5161C46.7279 35.0803 46.3879 33.6607 45.7093 32.395C46.6811 31.617 47.4661 30.6312 48.0069 29.51C48.5477 28.3888 48.8304 27.1607 48.8343 25.9159ZM25.9177 20.8117C25.4639 20.5522 24.9902 20.3292 24.501 20.145C23.9761 19.9682 23.4024 20.0072 22.9062 20.2533C22.41 20.4994 22.032 20.9326 21.8552 21.4575C21.6783 21.9824 21.7173 22.5561 21.9634 23.0523C22.2096 23.5485 22.6427 23.9265 23.1677 24.1034C23.9696 24.3933 24.6633 24.9223 25.1551 25.619C25.6469 26.3156 25.913 27.1464 25.9177 27.9992V31.2284C25.4639 30.9688 24.9902 30.7459 24.501 30.5617C23.9761 30.3849 23.4024 30.4238 22.9062 30.67C22.41 30.9161 22.032 31.3493 21.8552 31.8742C21.6783 32.3991 21.7173 32.9727 21.9634 33.4689C22.2096 33.9651 22.6427 34.3432 23.1677 34.52C23.9696 34.8099 24.6633 35.339 25.1551 36.0356C25.6469 36.7323 25.913 37.5631 25.9177 38.4159V42.5825C25.9177 43.1351 25.6982 43.665 25.3075 44.0557C24.9168 44.4464 24.3869 44.6659 23.8343 44.6659C23.4313 44.6632 23.0376 44.5437 22.7011 44.3219C22.3646 44.1 22.0997 43.7853 21.9385 43.4159C22.2878 43.2109 22.622 42.9811 22.9385 42.7284C23.1491 42.5533 23.3233 42.3384 23.4509 42.096C23.5785 41.8536 23.6571 41.5885 23.6823 41.3157C23.7074 41.0429 23.6786 40.7679 23.5975 40.5062C23.5163 40.2446 23.3844 40.0015 23.2093 39.7909C23.0342 39.5802 22.8193 39.4061 22.577 39.2785C22.3346 39.1508 22.0694 39.0722 21.7967 39.0471C21.5239 39.0219 21.2488 39.0507 20.9872 39.1319C20.7256 39.213 20.4825 39.3449 20.2718 39.52C19.5196 40.1533 18.5676 40.5001 17.5843 40.4992C16.4792 40.4992 15.4194 40.0602 14.638 39.2788C13.8566 38.4974 13.4177 37.4376 13.4177 36.3325C13.4276 35.5483 13.6587 34.7829 14.0843 34.1242C14.5519 34.208 15.026 34.2499 15.501 34.2492C16.0535 34.2492 16.5834 34.0297 16.9741 33.639C17.3648 33.2483 17.5843 32.7184 17.5843 32.1659C17.5843 31.6133 17.3648 31.0834 16.9741 30.6927C16.5834 30.302 16.0535 30.0825 15.501 30.0825C15.0089 30.0854 14.5208 29.9934 14.0635 29.8117C13.3142 29.5415 12.6581 29.0621 12.1728 28.4305C11.6876 27.7988 11.3936 27.0413 11.3256 26.2477C11.2577 25.454 11.4186 24.6576 11.7894 23.9526C12.1602 23.2476 12.7252 22.6637 13.4177 22.27C13.7137 22.5424 14.0345 22.7865 14.376 22.9992C14.8567 23.2755 15.4275 23.3494 15.9627 23.2049C16.498 23.0603 16.9539 22.7091 17.2302 22.2284C17.5064 21.7476 17.5804 21.1769 17.4359 20.6416C17.2913 20.1064 16.94 19.6505 16.4593 19.3742C16.166 19.2124 15.9215 18.975 15.751 18.6867C15.5584 18.3522 15.4712 17.9674 15.501 17.5825C15.501 17.03 15.7205 16.5001 16.1112 16.1094C16.5019 15.7187 17.0318 15.4992 17.5843 15.4992C17.7294 15.4789 17.8767 15.4789 18.0218 15.4992C18.1321 15.8339 18.2643 16.161 18.4177 16.4784C18.5538 16.7171 18.7357 16.9265 18.9531 17.0946C19.1705 17.2627 19.419 17.3861 19.6843 17.4578C19.9496 17.5294 20.2264 17.5479 20.4989 17.5121C20.7714 17.4763 21.034 17.3869 21.2718 17.2492C21.7337 16.9713 22.0699 16.5252 22.2098 16.0046C22.3496 15.484 22.2822 14.9295 22.0218 14.4575C21.847 14.1379 21.754 13.7801 21.751 13.4159C21.751 12.8633 21.9705 12.3334 22.3612 11.9427C22.7519 11.552 23.2818 11.3325 23.8343 11.3325C24.3869 11.3325 24.9168 11.552 25.3075 11.9427C25.6982 12.3334 25.9177 12.8633 25.9177 13.4159V20.8117ZM41.9385 29.8117C41.4811 29.9934 40.9931 30.0854 40.501 30.0825C39.9484 30.0825 39.4185 30.302 39.0278 30.6927C38.6371 31.0834 38.4177 31.6133 38.4177 32.1659C38.4177 32.7184 38.6371 33.2483 39.0278 33.639C39.4185 34.0297 39.9484 34.2492 40.501 34.2492C40.976 34.2499 41.4501 34.208 41.9177 34.1242C42.3433 34.7829 42.5743 35.5483 42.5843 36.3325C42.5843 37.4376 42.1453 38.4974 41.3639 39.2788C40.5825 40.0602 39.5227 40.4992 38.4177 40.4992C37.4343 40.5001 36.4824 40.1533 35.7302 39.52C35.3047 39.1664 34.7562 38.9963 34.2053 39.0471C33.6544 39.0978 33.1463 39.3654 32.7927 39.7909C32.439 40.2163 32.2689 40.7648 32.3197 41.3157C32.3705 41.8666 32.638 42.3747 33.0635 42.7284C33.38 42.9811 33.7142 43.2109 34.0635 43.4159C33.9023 43.7853 33.6373 44.1 33.3008 44.3219C32.9643 44.5437 32.5707 44.6632 32.1677 44.6659C31.6151 44.6659 31.0852 44.4464 30.6945 44.0557C30.3038 43.665 30.0843 43.1351 30.0843 42.5825V38.4159C30.0889 37.5631 30.3551 36.7323 30.8469 36.0356C31.3387 35.339 32.0324 34.8099 32.8343 34.52C33.3592 34.3432 33.7924 33.9651 34.0385 33.4689C34.2847 32.9727 34.3236 32.3991 34.1468 31.8742C33.97 31.3493 33.5919 30.9161 33.0957 30.67C32.5995 30.4238 32.0259 30.3849 31.501 30.5617C31.0118 30.7459 30.5381 30.9688 30.0843 31.2284V27.9992C30.0889 27.1464 30.3551 26.3156 30.8469 25.619C31.3387 24.9223 32.0324 24.3933 32.8343 24.1034C33.0942 24.0158 33.3343 23.8779 33.541 23.6976C33.7476 23.5172 33.9167 23.298 34.0385 23.0523C34.1604 22.8066 34.2327 22.5393 34.2513 22.2657C34.2699 21.992 34.2344 21.7174 34.1468 21.4575C34.0593 21.1976 33.9214 20.9575 33.741 20.7509C33.5607 20.5443 33.3414 20.3752 33.0957 20.2533C32.85 20.1314 32.5828 20.0591 32.3091 20.0406C32.0355 20.022 31.7609 20.0575 31.501 20.145C31.0118 20.3292 30.5381 20.5522 30.0843 20.8117V13.4159C30.0843 12.8633 30.3038 12.3334 30.6945 11.9427C31.0852 11.552 31.6151 11.3325 32.1677 11.3325C32.7202 11.3325 33.2501 11.552 33.6408 11.9427C34.0315 12.3334 34.251 12.8633 34.251 13.4159C34.248 13.7801 34.155 14.1379 33.9802 14.4575C33.8415 14.6941 33.751 14.9556 33.7137 15.2272C33.6763 15.4988 33.693 15.7751 33.7627 16.0403C33.8324 16.3054 33.9537 16.5542 34.1197 16.7724C34.2857 16.9906 34.4932 17.1738 34.7302 17.3117C34.9679 17.4494 35.2306 17.5388 35.5031 17.5746C35.7755 17.6104 36.0524 17.5919 36.3177 17.5203C36.583 17.4486 36.8314 17.3252 37.0488 17.1571C37.2662 16.989 37.4482 16.7796 37.5843 16.5409C37.7403 16.2032 37.8725 15.8552 37.9802 15.4992C38.1253 15.4789 38.2725 15.4789 38.4177 15.4992C38.9702 15.4992 39.5001 15.7187 39.8908 16.1094C40.2815 16.5001 40.501 17.03 40.501 17.5825C40.4978 17.9909 40.3746 18.3894 40.1468 18.7284C39.9764 18.9987 39.7398 19.221 39.4593 19.3742C38.9786 19.6505 38.6273 20.1064 38.4828 20.6416C38.3382 21.1769 38.4122 21.7476 38.6885 22.2284C38.9647 22.7091 39.4207 23.0603 39.9559 23.2049C40.4912 23.3494 41.0619 23.2755 41.5427 22.9992C41.9167 22.7969 42.2662 22.5522 42.5843 22.27C43.2791 22.6568 43.8487 23.2342 44.2259 23.9343C44.6031 24.6343 44.7721 25.4276 44.7129 26.2206C44.6538 27.0136 44.369 27.7731 43.8921 28.4094C43.4153 29.0457 42.7663 29.5323 42.0218 29.8117H41.9385Z" fill="url(#paint0_linear_5077_29284)"/>
<defs>
<linearGradient id="paint0_linear_5077_29284" x1="-68.7802" y1="-53.2335" x2="84.97" y2="-80.8658" gradientUnits="userSpaceOnUse">
<stop offset="0.297847" stop-color="#009BA2"/>
<stop offset="0.634591" stop-color="#BC658D"/>
</linearGradient>
</defs>
</svg>
