<svg width="80" height="80" viewBox="0 0 80 80" fill="none" xmlns="http://www.w3.org/2000/svg">
<path d="M58.6712 26.4794C58.716 36.5506 50.5424 45.1306 40.0184 45.1442C29.7512 45.1562 21.324 36.8794 21.332 26.4602C21.34 15.905 29.9352 7.77141 40.036 7.79301C50.3776 7.81461 58.7216 16.257 58.6712 26.4794ZM40.7392 19.1058C40.7064 22.1186 43.232 24.5602 46.192 24.5594C49.0216 24.5594 51.64 22.2746 51.6464 19.0978C51.6528 15.8914 49.0336 13.6226 46.2192 13.617C43.3104 13.6114 40.7048 16.0354 40.7392 19.1058Z" fill="#DB353A"/>
<path d="M76.1693 63.0262C76.1077 63.0054 76.0893 63.019 76.0701 63.051C75.6117 63.8286 74.8925 64.251 74.0421 64.4174C72.5373 64.7158 71.1357 64.427 69.8973 63.5054C68.8765 62.7454 68.3037 61.6966 68.1373 60.447C67.9529 59.1831 68.1513 57.893 68.7069 56.743C69.5173 55.063 70.8613 54.051 72.6733 53.659C73.4076 53.4901 74.1659 53.4522 74.9133 53.547C76.7781 53.8022 78.0469 54.8102 78.7357 56.5502C78.9768 57.1388 79.1017 57.7685 79.1037 58.4046C79.0901 60.2774 79.1701 62.1478 79.2029 64.0198C79.2185 64.7587 79.0925 65.4938 78.8317 66.1854C78.2317 67.7726 77.1269 68.8542 75.5197 69.3902C74.2251 69.8269 72.8289 69.8632 71.5133 69.4942C71.0274 69.3668 70.5685 69.1524 70.1589 68.8614C69.4669 68.3638 69.0773 67.7118 69.1189 66.8342C69.1333 66.5254 69.1189 66.215 69.1229 65.9054C69.1229 65.8446 69.1365 65.7806 69.1989 65.7606C69.2284 65.7543 69.259 65.7564 69.2873 65.7667C69.3157 65.777 69.3405 65.7952 69.3589 65.819C69.6387 66.0824 69.9594 66.2985 70.3085 66.459C70.7901 66.6825 71.2998 66.8394 71.8237 66.9254C72.358 67.015 72.9005 67.045 73.4413 67.015C73.8841 67.0006 74.3212 66.9102 74.7333 66.7478C75.5205 66.4278 75.9909 65.8414 76.1557 65.0166C76.2441 64.5959 76.2652 64.1639 76.2181 63.7366C76.1925 63.499 76.1853 63.255 76.1693 63.0262ZM76.1125 59.0262C76.1125 58.3014 76.0325 57.8502 75.8333 57.4086C75.4397 56.523 74.6853 56.1142 73.7421 56.1622C72.7989 56.2102 72.0621 56.679 71.6013 57.5134C71.3477 57.9559 71.1959 58.4494 71.1569 58.9579C71.1178 59.4665 71.1926 59.9773 71.3757 60.4534C71.7573 61.4934 72.7357 62.2198 74.1413 61.927C75.0213 61.743 75.5813 61.1702 75.8957 60.3454C76.0494 59.9238 76.123 59.4772 76.1125 59.0286V59.0262Z" fill="#686767"/>
<path d="M11.0994 54.4268C10.989 54.4172 10.9394 54.3348 10.8778 54.2764C10.0666 53.5276 9.09296 53.1564 8.01136 53.0236C7.36703 52.9446 6.71537 52.9459 6.07136 53.0276C5.63015 53.0694 5.1998 53.1888 4.80017 53.3804C4.14497 53.7164 3.82657 54.2492 3.84817 54.99C3.85034 55.1601 3.88929 55.3276 3.96234 55.4812C4.0354 55.6347 4.14082 55.7707 4.27137 55.8796C4.47473 56.0508 4.70294 56.1899 4.94817 56.2924C5.50469 56.5276 6.08147 56.7115 6.67136 56.842C7.17216 56.962 7.67776 57.066 8.17456 57.2028C8.84634 57.3807 9.48032 57.6789 10.0458 58.0828C10.8586 58.6732 11.4058 59.4516 11.5258 60.4532C11.7954 62.6692 10.913 64.7964 8.47536 65.6876C7.37776 66.0876 6.23536 66.1836 5.07697 66.0924C4.50272 66.0601 3.93454 65.958 3.38497 65.7884C3.00521 65.6702 2.64384 65.4995 2.31137 65.2812C1.54897 64.7628 1.15217 64.0436 1.13297 63.1212C1.12417 62.7084 1.13297 62.2956 1.13297 61.8828C1.13297 61.7908 1.20817 61.7516 1.27937 61.8028C1.37377 61.8732 1.46257 61.9516 1.55537 62.0236C2.96497 63.118 4.55777 63.5436 6.32576 63.3372C6.70809 63.3024 7.08341 63.2126 7.44016 63.0708C7.83376 62.9044 8.15536 62.6548 8.33536 62.258C8.55216 61.778 8.55696 61.2844 8.43696 60.7868C8.37616 60.5356 8.19696 60.3508 7.99376 60.1964C7.76575 60.0329 7.51583 59.9022 7.25136 59.8084C6.5736 59.5629 5.8783 59.3687 5.17137 59.2276C4.63678 59.121 4.11081 58.975 3.59777 58.7908C3.02766 58.5869 2.49656 58.2871 2.02737 57.9044C1.10897 57.1316 0.72017 56.13 0.81457 54.9612C0.98577 52.9044 2.12897 51.5476 3.98017 50.7436C4.63223 50.4639 5.33098 50.309 6.04016 50.2868C6.89616 50.254 7.74976 50.2692 8.58896 50.4732C9.04986 50.5763 9.49211 50.7498 9.90016 50.9876C10.3258 51.2297 10.6737 51.5879 10.9034 52.0204C11.0342 52.2529 11.111 52.5118 11.1282 52.778C11.1418 53.2932 11.1458 53.8092 11.1498 54.3252C11.1498 54.3572 11.1202 54.394 11.0994 54.4268Z" fill="#686767"/>
<path d="M26.3858 61.1C25.841 61.1 25.2954 61.1 24.7498 61.1C24.5834 61.1 24.5394 61.1576 24.5746 61.3184C24.6615 61.7237 24.8466 62.1015 25.1138 62.4184C25.5986 62.9952 26.229 63.32 26.9538 63.4824C27.5522 63.6168 28.1538 63.5936 28.7586 63.5432C29.2144 63.5065 29.6645 63.418 30.1002 63.2792C30.6226 63.1177 31.1082 62.8555 31.5298 62.5072C31.621 62.4272 31.7114 62.4704 31.7114 62.5832C31.7114 63.0104 31.737 63.4368 31.6666 63.8632C31.6226 64.163 31.5166 64.4503 31.3553 64.7068C31.194 64.9633 30.9809 65.1833 30.7298 65.3528C30.3013 65.6438 29.8159 65.8404 29.3058 65.9296C28.4058 66.1056 27.5002 66.18 26.581 66.0592C24.3834 65.772 22.2994 64.1864 21.6474 61.756C21.4451 61.0004 21.3758 60.2154 21.4426 59.436C21.4874 58.7446 21.6194 58.0616 21.8354 57.4032C22.273 56.1376 23.013 55.1 24.1554 54.3752C24.9162 53.8952 25.7514 53.6384 26.645 53.5376C27.57 53.4198 28.5098 53.5538 29.365 53.9256C30.7938 54.556 31.709 55.6288 32.0458 57.1648C32.1723 57.6971 32.1906 58.2494 32.0994 58.7888C31.9818 59.4288 31.6666 59.9392 31.117 60.2976C30.7153 60.5466 30.2732 60.7234 29.8106 60.82C29.1055 60.9781 28.3865 61.066 27.6642 61.0824C27.237 61.0952 26.8098 61.0824 26.3842 61.0824L26.3858 61.1ZM26.0274 58.9736C26.6242 58.9672 27.2714 58.9736 27.9146 58.8816C28.2213 58.8462 28.5219 58.7695 28.8082 58.6536C28.9679 58.5923 29.1046 58.4828 29.1994 58.3403C29.2941 58.1979 29.3422 58.0295 29.337 57.8584C29.3466 57.1744 29.0746 56.572 28.377 56.2584C27.7536 55.978 27.0524 55.9215 26.3922 56.0984C25.5962 56.3048 25.0754 56.8408 24.7522 57.5816C24.5962 57.9376 24.5514 58.3176 24.5178 58.7016C24.497 58.9328 24.5218 58.9664 24.7426 58.9688C25.1538 58.9768 25.5658 58.9736 26.0274 58.9736Z" fill="#686767"/>
<path d="M66.2219 61.8789C66.2219 62.9989 66.2219 64.1189 66.2219 65.2389C66.2219 65.3277 66.2219 65.4165 66.2219 65.5045C66.2147 65.8381 66.2091 65.8453 65.8691 65.8485C65.5155 65.8485 65.1611 65.8613 64.8131 65.7789C64.0515 65.5989 63.5147 65.1709 63.2875 64.4021C63.2195 64.1725 63.2283 63.9349 63.2283 63.6989C63.2283 62.2093 63.2283 60.7199 63.2283 59.2309C63.2338 58.7732 63.1838 58.3165 63.0795 57.8709C63.0206 57.627 62.9274 57.3926 62.8027 57.1749C62.5847 56.7841 62.2326 56.4855 61.8115 56.3341C61.2976 56.1371 60.7352 56.1044 60.2019 56.2405C59.739 56.3551 59.3368 56.641 59.0763 57.0405C58.847 57.3856 58.7005 57.779 58.6483 58.1901C58.6039 58.5114 58.5815 58.8353 58.5811 59.1597C58.5849 61.2247 58.5849 63.2893 58.5811 65.3533C58.5811 65.8941 58.6163 65.8485 58.0739 65.8485C57.7794 65.8596 57.4845 65.8403 57.1939 65.7909C56.2827 65.6053 55.7099 64.9909 55.6123 64.0741C55.5965 63.9127 55.589 63.7506 55.5899 63.5885C55.5899 62.0098 55.5899 60.4319 55.5899 58.8549C55.5899 58.2149 55.6499 57.5877 55.8499 56.9789C56.3683 55.4021 57.4027 54.3237 58.9875 53.8093C60.1787 53.4229 61.3875 53.3677 62.6019 53.7165C64.5083 54.2661 65.6419 55.5445 66.0787 57.4629C66.1803 57.9554 66.2281 58.4576 66.2211 58.9605C66.2259 59.9317 66.2219 60.9053 66.2219 61.8789Z" fill="#676767"/>
<path d="M13.5948 57.8898C13.5948 56.665 13.5948 55.441 13.5948 54.217C13.5895 53.9811 13.6024 53.7453 13.6332 53.5114C13.786 52.5282 14.3668 51.8266 15.1532 51.2762C15.5388 51.0074 15.9868 51.013 16.4332 51.049C16.4707 51.0513 16.5058 51.0682 16.5308 51.0963C16.5558 51.1243 16.5687 51.1611 16.5668 51.1986C16.5724 51.3018 16.5724 51.405 16.5724 51.5082C16.5724 52.0978 16.5724 52.6882 16.5724 53.2778C16.5724 53.381 16.5724 53.4842 16.5724 53.5874C16.5695 53.6095 16.5715 53.632 16.5784 53.6533C16.5853 53.6745 16.5968 53.6939 16.6121 53.7102C16.6274 53.7264 16.6462 53.739 16.667 53.7471C16.6878 53.7552 16.7101 53.7586 16.7324 53.757C16.8508 53.757 16.9684 53.7618 17.086 53.7618H20.1836C20.2724 53.7618 20.3604 53.7618 20.4492 53.7618C20.7364 53.7682 20.7428 53.773 20.7476 54.065C20.7476 54.3162 20.7476 54.5666 20.7476 54.817C20.742 55.6698 20.226 56.2706 19.3812 56.393C19.1618 56.4214 18.9408 56.435 18.7196 56.4338C18.174 56.4394 17.6284 56.4338 17.0828 56.4338C16.9796 56.4338 16.8764 56.4338 16.7732 56.4338C16.63 56.4418 16.5836 56.4842 16.5748 56.6146C16.5684 56.7026 16.57 56.7914 16.57 56.8802C16.57 58.2807 16.57 59.6818 16.57 61.0834C16.5586 61.4227 16.5944 61.7619 16.6764 62.0914C16.8828 62.8114 17.3252 63.2114 18.098 63.2818C18.9244 63.3522 19.7492 63.309 20.5228 62.9442C20.6868 62.8642 20.7428 62.9018 20.7452 63.0738C20.7452 63.3938 20.7572 63.7234 20.7452 64.0466C20.7076 64.8258 20.3324 65.381 19.6156 65.7018C19.3465 65.824 19.0592 65.9013 18.7652 65.9306C17.938 66.0106 17.1148 65.9786 16.3124 65.7338C14.9732 65.3266 14.1324 64.4354 13.7756 63.0866C13.649 62.6008 13.5866 62.1005 13.59 61.5986C13.59 60.3602 13.59 59.1215 13.59 57.8826L13.5948 57.8898Z" fill="#686868"/>
<path d="M42.0899 56.3465C42.0899 54.2825 42.0899 52.219 42.0899 50.1561C42.0899 49.7321 42.0763 49.7489 42.5027 49.7505C42.7243 49.7505 42.9451 49.7505 43.1659 49.7553C43.4169 49.7619 43.665 49.8111 43.8995 49.9009C44.5035 50.1185 44.8651 50.5513 45.0195 51.1681C45.0765 51.4272 45.1018 51.6924 45.0947 51.9577C45.0947 55.1705 45.0947 58.3833 45.0947 61.5961C45.0947 61.8025 45.0947 62.0097 45.1083 62.2145C45.1587 62.8353 45.4819 63.2233 46.0771 63.3825C46.3335 63.4513 46.598 63.4858 46.8635 63.4849C47.1587 63.4849 47.4531 63.4849 47.7483 63.4897C47.8467 63.4897 47.9235 63.5281 47.9267 63.6385C47.9379 64.0385 47.9547 64.4385 47.8467 64.8241C47.7931 65.0474 47.6837 65.2536 47.5288 65.4233C47.374 65.593 47.1787 65.7207 46.9611 65.7945C46.7552 65.871 46.5399 65.9197 46.3211 65.9393C45.6589 65.9999 44.9912 65.9306 44.3555 65.7353C43.1435 65.3513 42.4539 64.5065 42.1955 63.2809C42.1231 62.9043 42.0904 62.5211 42.0979 62.1377C42.0931 60.2075 42.0904 58.2771 42.0899 56.3465Z" fill="#686868"/>
<path d="M36.9238 61.9995C36.9238 63.151 36.9238 64.3017 36.9238 65.4515C36.9238 65.8515 36.919 65.8515 36.539 65.8515C36.159 65.8515 35.7718 65.8595 35.3942 65.7715C34.715 65.6195 34.207 65.2627 33.991 64.5715C33.922 64.3455 33.8877 64.1103 33.8894 63.8739C33.8894 62.0155 33.8806 60.1571 33.895 58.2987C33.8883 57.514 34.0521 56.7372 34.375 56.0219C34.9822 54.7179 36.0038 53.9659 37.415 53.7315C37.9969 53.6236 38.594 53.626 39.175 53.7387C39.4505 53.7921 39.7145 53.8934 39.955 54.0379C40.2253 54.1933 40.4502 54.4167 40.6075 54.6858C40.7648 54.955 40.849 55.2606 40.8518 55.5723C40.863 55.8667 40.8574 56.1619 40.8518 56.4571C40.8518 56.6715 40.7942 56.7051 40.5758 56.6363C40.4774 56.6059 40.3814 56.5667 40.283 56.5355C39.7187 56.3565 39.1219 56.3041 38.535 56.3819C37.8614 56.4715 37.3966 56.8347 37.147 57.4659C37.0344 57.7394 36.969 58.0299 36.9534 58.3251C36.939 58.6635 36.927 59.0027 36.9262 59.3419C36.9214 60.2275 36.9238 61.1123 36.9238 61.9995Z" fill="#686868"/>
<path d="M49.087 58.4993C49.087 57.1414 49.087 55.7843 49.087 54.4281C49.087 54.0353 49.087 54.0345 49.4686 54.0281C49.8224 54.0131 50.1768 54.0343 50.5262 54.0913C51.3182 54.2513 51.8062 54.7201 51.9974 55.4985C52.0636 55.787 52.0945 56.0825 52.0894 56.3785C52.0857 58.1486 52.0857 59.9187 52.0894 61.6889C52.0894 61.8801 52.0846 62.0729 52.103 62.2633C52.1598 62.8433 52.4182 63.2817 53.1214 63.4249C53.4413 63.4775 53.7655 63.4984 54.0894 63.4873C54.4838 63.4873 54.4822 63.4833 54.4798 63.8761C54.4913 64.2004 54.4675 64.525 54.4086 64.8441C54.2822 65.4041 53.955 65.7537 53.391 65.8841C53.2047 65.9277 53.0144 65.9523 52.823 65.9577C52.3508 65.973 51.8789 65.9191 51.4222 65.7977C50.3022 65.4905 49.595 64.7641 49.2734 63.6585C49.144 63.2038 49.0809 62.7328 49.0862 62.2601C49.0862 61.0065 49.0862 59.7529 49.0862 58.5001L49.087 58.4993Z" fill="#686868"/>
<path d="M48.8206 51.1502C48.8216 50.6891 49.0052 50.2473 49.3311 49.9212C49.657 49.5952 50.0987 49.4114 50.5598 49.4102C51.5294 49.4102 52.3614 50.227 52.331 51.1774C52.3247 51.64 52.1376 52.0818 51.8097 52.4082C51.4818 52.7345 51.0392 52.9196 50.5766 52.9238C50.344 52.9254 50.1135 52.8805 49.8986 52.7917C49.6836 52.703 49.4886 52.5721 49.325 52.4068C49.1614 52.2416 49.0325 52.0453 48.9458 51.8295C48.8592 51.6136 48.8166 51.3827 48.8206 51.1502Z" fill="#686868"/>
<path d="M48.7592 70.0062C48.8456 69.9262 48.9192 69.8574 48.9992 69.7982C49.5104 69.4166 50.328 69.6222 50.4392 70.3414C50.4608 70.4423 50.475 70.5447 50.4816 70.6478C50.4864 71.075 50.4816 71.503 50.4816 71.9278C50.4816 72.0166 50.4816 72.1158 50.3648 72.1342C50.3133 72.1424 50.2606 72.135 50.2133 72.1129C50.1661 72.0908 50.1266 72.055 50.1 72.0102C50.0578 71.9316 50.0402 71.8421 50.0496 71.7534C50.0496 71.4294 50.0496 71.1046 50.0496 70.7798C50.0546 70.6172 50.0257 70.4554 49.9648 70.3046C49.876 70.099 49.72 70.0134 49.4632 70.0254C49.2232 70.0366 49.0536 70.1494 49.0032 70.3646C48.9697 70.5224 48.9528 70.6833 48.9528 70.8446C48.9456 71.199 48.9528 71.5526 48.9528 71.907C48.9528 71.9934 48.9624 72.0934 48.8576 72.1318C48.7926 72.1474 48.724 72.1376 48.6659 72.1044C48.6078 72.0713 48.5645 72.0173 48.5448 71.9534C48.5248 71.8525 48.5151 71.7498 48.516 71.647C48.512 71.3814 48.516 71.1158 48.512 70.847C48.5108 70.6998 48.4942 70.5531 48.4624 70.4094C48.4379 70.2926 48.3717 70.1887 48.2761 70.1171C48.1806 70.0455 48.0622 70.0112 47.9432 70.0206C47.6928 70.0254 47.5496 70.1414 47.4632 70.3998C47.4211 70.5561 47.4041 70.7181 47.4128 70.8798C47.4128 71.2486 47.4128 71.6174 47.4064 71.9862C47.4068 72.0116 47.4005 72.0367 47.3882 72.059C47.3759 72.0812 47.358 72.0999 47.3362 72.1132C47.3145 72.1264 47.2897 72.1338 47.2643 72.1345C47.2389 72.1352 47.2137 72.1293 47.1912 72.1174C47.0248 72.0566 46.98 71.923 46.9792 71.767C46.9792 71.383 46.9704 70.9998 46.9848 70.6166C46.9929 70.4694 47.0267 70.3248 47.0848 70.1894C47.1847 69.9561 47.3716 69.7709 47.6058 69.6731C47.84 69.5752 48.103 69.5725 48.3392 69.6654C48.5104 69.7414 48.6248 69.8774 48.7592 70.0062Z" fill="#706E6E"/>
<path d="M58.1951 70.4964C58.2167 70.5764 58.2895 70.5988 58.3455 70.6396C58.8255 70.9852 58.6727 71.658 58.3047 71.9412C58.2237 72.0049 58.1322 72.0539 58.0343 72.086C57.6511 72.199 57.2446 72.2064 56.8575 72.1076C56.6047 72.0484 56.4647 71.8572 56.4343 71.5964C56.4272 71.523 56.4246 71.4493 56.4263 71.3756C56.4263 70.7268 56.4263 70.078 56.4263 69.4292C56.4263 69.0804 56.4303 69.0772 56.7855 69.0084C57.1341 68.9422 57.4914 68.9354 57.8423 68.9884C58.2719 69.0508 58.6167 69.3524 58.5735 69.8796C58.567 70.0432 58.498 70.1981 58.3807 70.3124C58.3215 70.3724 58.2255 70.4012 58.1951 70.4964ZM56.8567 71.1364C56.8567 71.21 56.8567 71.2828 56.8567 71.3564C56.8551 71.3857 56.8551 71.415 56.8567 71.4444C56.8759 71.626 56.9463 71.7292 57.1103 71.7588C57.3693 71.8174 57.6396 71.8033 57.8911 71.718C58.1311 71.626 58.2263 71.4444 58.2023 71.1516C58.1823 70.9116 58.0767 70.7772 57.8311 70.73C57.6582 70.6988 57.4828 70.6827 57.3071 70.682C56.8359 70.6764 56.8543 70.6604 56.8567 71.138V71.1364ZM57.3511 70.3364C57.5119 70.3284 57.6722 70.3116 57.8311 70.286C58.0327 70.2436 58.1407 70.086 58.1511 69.8676C58.1591 69.6364 58.0711 69.4908 57.8807 69.4132C57.7011 69.3505 57.5103 69.3263 57.3207 69.342C56.8839 69.3556 56.8559 69.3828 56.8567 69.822C56.8519 70.3596 56.8143 70.3212 57.3511 70.3348V70.3364Z" fill="#737070"/>
<path d="M27.9808 70.6362C27.9688 70.8423 27.9307 71.0461 27.8672 71.2426C27.6456 71.8546 27.16 72.2026 26.5264 72.1898C26.2296 72.1887 25.9413 72.09 25.706 71.909C25.4707 71.7281 25.3014 71.4748 25.224 71.1882C25.0927 70.7628 25.1034 70.3062 25.2544 69.8874C25.4808 69.2434 25.9744 68.9226 26.6856 68.9554C27.28 68.9826 27.748 69.3706 27.9104 69.9834C27.9682 70.1959 27.992 70.4163 27.9808 70.6362ZM25.5616 70.5258C25.5552 70.7173 25.5823 70.9084 25.6416 71.0906C25.7672 71.5426 26.116 71.7962 26.5872 71.7946C27.0272 71.7946 27.3584 71.5354 27.4872 71.0938C27.5833 70.7538 27.5833 70.3938 27.4872 70.0538C27.3656 69.5914 27.0416 69.3426 26.556 69.3338C26.0976 69.3338 25.7688 69.5658 25.636 70.0058C25.579 70.173 25.5537 70.3494 25.5616 70.5258Z" fill="#706E6E"/>
<path d="M33.1254 71.5849C33.2014 71.8409 33.0918 71.9793 32.9054 72.0761C32.2854 72.3961 31.4846 72.0985 31.255 71.4441C31.1738 71.2289 31.1442 70.9976 31.1683 70.7688C31.1925 70.54 31.2698 70.3201 31.3942 70.1265C31.5357 69.8895 31.7646 69.7174 32.0317 69.6476C32.2988 69.5777 32.5827 69.6155 32.8222 69.7529C32.972 69.835 33.0931 69.9611 33.1691 70.1142C33.245 70.2672 33.2722 70.4399 33.247 70.6089C33.2405 70.6902 33.212 70.7682 33.1645 70.8344C33.117 70.9007 33.0523 70.9527 32.9774 70.9849C32.8148 71.0571 32.6384 71.0931 32.4606 71.0905C32.2254 71.0905 31.9894 71.0905 31.7534 71.1001C31.7353 71.1013 31.7178 71.1065 31.7021 71.1155C31.6865 71.1245 31.6731 71.137 31.663 71.152C31.653 71.167 31.6465 71.1842 31.6441 71.2021C31.6418 71.22 31.6436 71.2382 31.6494 71.2553C31.7294 71.5617 31.983 71.7625 32.3294 71.7897C32.555 71.8073 32.7078 71.7689 33.1254 71.5849ZM32.2094 70.7417C32.2798 70.7369 32.4574 70.7345 32.6302 70.7081C32.7814 70.6849 32.8446 70.5689 32.8246 70.4153C32.8189 70.3338 32.7889 70.2558 32.7386 70.1914C32.6883 70.127 32.6199 70.079 32.5422 70.0537C32.1894 69.9353 31.7646 70.0457 31.6398 70.5073C31.5982 70.6609 31.6438 70.7345 31.7958 70.7409C31.8982 70.7457 31.9998 70.7417 32.2094 70.7417Z" fill="#737070"/>
<path d="M53.0309 71.5528C53.0677 71.8984 52.9157 72.0496 52.6893 72.1176C51.8517 72.3664 51.2109 71.9472 51.0693 71.212C50.9935 70.8461 51.0614 70.4651 51.2589 70.148C51.5421 69.6856 52.0845 69.4912 52.5613 69.6824C52.7086 69.7342 52.8392 69.8245 52.9397 69.944C53.0402 70.0634 53.1067 70.2076 53.1325 70.3616C53.1805 70.6232 53.1061 70.948 52.7181 71.0344C52.6037 71.0609 52.4873 71.0783 52.3701 71.0864C52.1933 71.096 52.0157 71.0864 51.8397 71.0952C51.7413 71.0952 51.6117 71.0528 51.5565 71.1544C51.4853 71.2872 51.5725 71.4088 51.6573 71.512C51.8549 71.752 52.1189 71.8136 52.4133 71.7832C52.6334 71.7518 52.8441 71.6732 53.0309 71.5528ZM51.5109 70.7184C51.8298 70.7586 52.1525 70.757 52.4709 70.7136C52.6997 70.6848 52.7797 70.5024 52.6757 70.2912C52.6477 70.2314 52.6075 70.1781 52.5576 70.1349C52.5077 70.0916 52.4493 70.0593 52.3861 70.04C51.9213 69.892 51.5269 70.1896 51.5149 70.7192L51.5109 70.7184Z" fill="#737070"/>
<path d="M59.2678 70.2593C59.2078 70.0841 59.283 69.9521 59.4102 69.8377C59.7422 69.5401 60.4262 69.5321 60.7702 69.8217C60.8463 69.8808 60.9092 69.9554 60.9547 70.0404C61.0001 70.1254 61.0272 70.2191 61.0342 70.3153C61.051 70.7153 61.0574 71.1105 61.0342 71.5065C61.0289 71.6407 60.9825 71.77 60.9012 71.8769C60.8199 71.9838 60.7077 72.0631 60.5798 72.1041C60.2755 72.2264 59.9352 72.2241 59.6326 72.0977C59.3366 71.9745 59.147 71.7649 59.1526 71.4273C59.1487 71.2785 59.1921 71.1323 59.2767 71.0098C59.3612 70.8873 59.4825 70.7948 59.623 70.7457C59.7462 70.6983 59.8745 70.6655 60.0054 70.6481C60.1358 70.6281 60.2694 70.6305 60.4054 70.6209C60.5822 70.6081 60.6406 70.5321 60.6054 70.3681C60.593 70.2795 60.5504 70.1979 60.4848 70.1371C60.4192 70.0763 60.3346 70.0401 60.2454 70.0345C59.9968 69.9898 59.7403 70.0283 59.5158 70.1441C59.4358 70.1849 59.3806 70.2657 59.2678 70.2593ZM60.2958 70.9937C60.007 70.9937 59.8806 71.0209 59.7494 71.1105C59.707 71.1391 59.6715 71.1768 59.6454 71.2207C59.6193 71.2647 59.6032 71.3139 59.5984 71.3648C59.5935 71.4157 59.5999 71.4671 59.6171 71.5152C59.6344 71.5633 59.6621 71.6071 59.6982 71.6433C59.891 71.8145 60.1182 71.8305 60.355 71.7553C60.5758 71.6849 60.619 71.5041 60.6222 71.3025C60.6222 71.2593 60.6222 71.2153 60.6222 71.1713C60.6142 71.0393 60.575 71.0025 60.4286 70.9945C60.3838 70.9921 60.3398 70.9937 60.2958 70.9937Z" fill="#737070"/>
<path d="M64.7682 70.6022C64.9282 70.5846 64.9642 70.4966 65.0226 70.435C65.2042 70.243 65.3834 70.047 65.5642 69.8542C65.6392 69.766 65.7398 69.7033 65.852 69.6746C65.9641 69.646 66.0824 69.6528 66.1906 69.6942C66.1906 69.7966 66.1106 69.827 66.0642 69.8766C65.849 70.0982 65.6266 70.3134 65.4162 70.539C65.1458 70.8286 65.1458 70.779 65.4058 71.1118C65.641 71.4134 65.8746 71.7166 66.2018 71.9294C66.2634 71.9694 66.2378 72.0806 66.1666 72.1102C66.0934 72.1464 66.011 72.1596 65.9301 72.148C65.8493 72.1364 65.7739 72.1007 65.7138 72.0454C65.5949 71.9359 65.4832 71.8189 65.3794 71.695C65.2258 71.5166 65.0802 71.331 64.9314 71.1486C64.92 71.1304 64.9027 71.1168 64.8825 71.1099C64.8622 71.1031 64.8402 71.1034 64.8202 71.111C64.7626 71.131 64.7722 71.1814 64.7714 71.2214C64.7658 71.4862 64.7666 71.751 64.7586 72.0158C64.7567 72.0376 64.7495 72.0586 64.7376 72.077C64.7258 72.0954 64.7096 72.1106 64.6905 72.1213C64.6714 72.132 64.65 72.1379 64.6281 72.1385C64.6063 72.1391 64.5846 72.1343 64.565 72.1246C64.522 72.1137 64.4828 72.0914 64.4515 72.0599C64.4202 72.0285 64.398 71.9892 64.3874 71.9462C64.3696 71.8598 64.3603 71.7719 64.3594 71.6838C64.3594 70.816 64.3594 69.9475 64.3594 69.0782C64.3594 69.0494 64.3594 69.0198 64.3594 68.9902C64.3642 68.8998 64.3698 68.8062 64.489 68.799C64.5406 68.7919 64.5932 68.8028 64.6378 68.8297C64.6825 68.8566 64.7166 68.898 64.7346 68.947C64.7594 69.0313 64.7702 69.1191 64.7666 69.207C64.7666 69.531 64.7666 69.855 64.7666 70.179L64.7682 70.6022Z" fill="#706E6E"/>
<path d="M19.2558 70.9033C19.261 71.0875 19.2301 71.271 19.1646 71.4433C19.0126 71.8665 18.7294 72.1337 18.263 72.1769C17.7966 72.2201 17.3606 72.0129 17.1582 71.5993C17.0383 71.369 16.9801 71.1116 16.9892 70.8521C16.9983 70.5926 17.0745 70.3398 17.2102 70.1185C17.4198 69.7537 17.7702 69.5977 18.179 69.6145C18.3806 69.6145 18.5778 69.6736 18.7461 69.7847C18.9143 69.8958 19.0462 70.0539 19.1254 70.2393C19.221 70.4471 19.2657 70.6748 19.2558 70.9033ZM18.8198 70.9249C18.8335 70.7262 18.7902 70.5278 18.695 70.3529C18.467 69.9401 17.847 69.9057 17.5846 70.2889C17.355 70.6225 17.3774 71.2233 17.6342 71.5337C17.7083 71.6259 17.8056 71.6967 17.9161 71.7389C18.0266 71.7811 18.1463 71.7931 18.263 71.7737C18.5198 71.7409 18.6782 71.5785 18.7622 71.3345C18.8049 71.2023 18.8244 71.0637 18.8198 70.9249Z" fill="#706E6E"/>
<path d="M46.4194 70.8815C46.423 71.0839 46.3866 71.2851 46.3122 71.4735C46.1602 71.8799 45.8778 72.1319 45.4322 72.1743C44.9866 72.2167 44.621 72.0623 44.3674 71.6847C44.0594 71.2239 44.0938 70.4527 44.4346 70.0159C44.9066 69.4111 45.905 69.5039 46.2618 70.1855C46.3669 70.4024 46.4208 70.6405 46.4194 70.8815ZM45.985 70.9367C45.9936 70.723 45.9426 70.5111 45.8378 70.3247C45.5978 69.9399 45.0098 69.9151 44.7514 70.2799C44.5162 70.6119 44.5322 71.2135 44.7866 71.5255C45.085 71.8903 45.7306 71.9023 45.9186 71.3463C45.9648 71.2158 45.9873 71.0782 45.985 70.9399V70.9367Z" fill="#706E6E"/>
<path d="M19.8247 70.4685C19.8247 70.2621 19.8247 70.0565 19.8247 69.8501C19.8247 69.7701 19.8415 69.6981 19.9263 69.6765C19.9621 69.6672 19.9997 69.6662 20.036 69.6735C20.0723 69.6809 20.1065 69.6964 20.1359 69.7189C20.1656 69.7406 20.1903 69.7684 20.2085 69.8004C20.2267 69.8324 20.238 69.8679 20.2415 69.9045C20.2519 70.0069 20.2575 70.1093 20.2583 70.2125C20.2583 70.4477 20.2535 70.6837 20.2623 70.9189C20.2635 71.0657 20.2823 71.2118 20.3183 71.3541C20.3373 71.4295 20.3717 71.5002 20.4192 71.5617C20.4668 71.6233 20.5265 71.6744 20.5946 71.7119C20.6627 71.7494 20.7378 71.7725 20.8152 71.7798C20.8927 71.7871 20.9708 71.7783 21.0447 71.7541C21.1245 71.736 21.198 71.6967 21.2574 71.6404C21.3168 71.5841 21.3599 71.5128 21.3823 71.4341C21.4265 71.2781 21.447 71.1163 21.4431 70.9541C21.4431 70.5861 21.4431 70.2181 21.4431 69.8501C21.4431 69.7765 21.4431 69.6965 21.5383 69.6765C21.574 69.6666 21.6116 69.6653 21.6479 69.6728C21.6842 69.6803 21.7182 69.6964 21.7471 69.7197C21.7904 69.7585 21.8234 69.8074 21.8431 69.8621C21.8657 69.9319 21.8773 70.0048 21.8775 70.0781C21.8775 70.4317 21.8775 70.7845 21.8775 71.1381C21.875 71.1969 21.8686 71.2554 21.8583 71.3133C21.7503 72.0157 21.1063 72.3853 20.4439 72.1213C20.3053 72.0686 20.1817 71.9827 20.0841 71.8711C19.9864 71.7595 19.9177 71.6257 19.8839 71.4813C19.846 71.3239 19.8238 71.1631 19.8175 71.0013C19.8063 70.8253 19.8175 70.6485 19.8175 70.4717L19.8247 70.4685Z" fill="#737070"/>
<path d="M37.0993 69.6188C37.0041 69.6188 36.9521 69.534 36.8785 69.4932C36.7289 69.4048 36.5604 69.3531 36.387 69.3424C36.2136 69.3316 36.0401 69.362 35.8806 69.4311C35.7212 69.5002 35.5804 69.6061 35.4698 69.7401C35.3591 69.8741 35.2818 70.0324 35.2441 70.202C35.1697 70.5208 35.2049 70.8553 35.3441 71.1516C35.5681 71.6628 36.1305 71.898 36.6745 71.7332C36.7993 71.6889 36.9179 71.6287 37.0273 71.554C37.0386 71.5481 37.0513 71.5451 37.0641 71.5451C37.0769 71.5451 37.0895 71.5481 37.1009 71.554C37.11 71.5651 37.1169 71.5779 37.121 71.5916C37.1251 71.6053 37.1264 71.6198 37.1249 71.634C37.1168 71.7152 37.0897 71.7932 37.0458 71.8619C37.0019 71.9306 36.9424 71.9879 36.8721 72.0292C36.7728 72.0932 36.6619 72.1369 36.5457 72.158C36.2618 72.2168 35.9667 72.1879 35.6996 72.075C35.4325 71.9621 35.2061 71.7706 35.0505 71.526C34.6809 70.9252 34.6657 70.2996 35.0073 69.6788C35.2801 69.1836 35.8257 68.858 36.5497 68.966C36.6755 68.9789 36.7952 69.0269 36.8951 69.1046C36.995 69.1822 37.071 69.2864 37.1145 69.4052C37.1306 69.4391 37.1377 69.4766 37.1351 69.514C37.1324 69.5515 37.1201 69.5876 37.0993 69.6188Z" fill="#737070"/>
<path d="M63.7246 71.2851C63.7246 71.5059 63.7246 71.7267 63.7246 71.9475C63.7246 72.0363 63.719 72.1299 63.5966 72.1395C63.5453 72.1496 63.4921 72.142 63.4457 72.1179C63.3993 72.0937 63.3625 72.0546 63.3414 72.0067C63.3121 71.9238 63.298 71.8363 63.2998 71.7483C63.2942 71.4539 63.2998 71.1595 63.295 70.8683C63.2949 70.7211 63.2823 70.5742 63.2574 70.4291C63.2094 70.1891 63.0462 70.0595 62.7918 70.0291C62.4942 69.9979 62.3022 70.0843 62.1918 70.2979C62.1267 70.4306 62.0959 70.5775 62.1022 70.7251C62.1022 71.0787 62.1022 71.4323 62.1022 71.7859C62.1038 71.8742 62.099 71.9624 62.0878 72.0499C62.0766 72.1147 62.0182 72.1363 61.955 72.1379C61.903 72.1409 61.8516 72.1269 61.8083 72.098C61.765 72.0692 61.7322 72.027 61.715 71.9779C61.6899 71.9093 61.6774 71.8366 61.6782 71.7635C61.675 71.3955 61.675 71.0275 61.6782 70.6595C61.684 70.481 61.7338 70.3066 61.8232 70.1519C61.9126 69.9972 62.0387 69.867 62.1905 69.7727C62.3423 69.6785 62.515 69.6231 62.6933 69.6116C62.8716 69.6001 63.05 69.6328 63.2126 69.7068C63.3474 69.7685 63.4632 69.8654 63.5477 69.9873C63.6321 70.1092 63.6822 70.2516 63.6926 70.3995C63.7254 70.6907 63.7254 70.9867 63.7398 71.2795L63.7246 71.2851Z" fill="#706E6E"/>
<path d="M37.5774 70.5049C37.5774 70.2697 37.5774 70.0345 37.5774 69.7993C37.5774 69.7017 37.663 69.6529 37.7614 69.6721C37.8203 69.6811 37.8744 69.7096 37.9151 69.7532C37.9557 69.7967 37.9805 69.8527 37.9854 69.9121C37.998 70.0287 38.0033 70.146 38.0014 70.2633C38.007 70.5721 37.9974 70.8817 38.0174 71.1897C38.0342 71.4593 38.1662 71.6641 38.4398 71.7497C38.5091 71.7754 38.5831 71.7863 38.6569 71.7816C38.7306 71.7769 38.8026 71.7567 38.8681 71.7224C38.9336 71.6881 38.9911 71.6404 39.037 71.5824C39.0828 71.5243 39.1159 71.4573 39.1342 71.3857C39.1647 71.2571 39.1784 71.125 39.175 70.9929C39.1806 70.6257 39.175 70.2577 39.1798 69.8897C39.1798 69.8049 39.1678 69.7049 39.2838 69.6769C39.3414 69.6634 39.4018 69.6706 39.4546 69.6972C39.5074 69.7239 39.5492 69.7682 39.5726 69.8225C39.5918 69.8621 39.6032 69.905 39.6062 69.9489C39.6062 70.3905 39.6294 70.8289 39.599 71.2721C39.5582 71.8497 39.1838 72.1761 38.6094 72.1881C38.0566 72.1993 37.6494 71.8601 37.5886 71.2985C37.5715 71.0343 37.5697 70.7693 37.583 70.5049H37.5774Z" fill="#737070"/>
<path d="M30.586 71.2376C30.586 71.5032 30.5908 71.768 30.586 72.0328C30.586 72.1232 30.506 72.1496 30.426 72.14C30.2844 72.1232 30.2012 72.0552 30.1804 71.928C30.1685 71.8405 30.1634 71.7522 30.1652 71.664C30.1652 71.3992 30.1652 71.1336 30.1652 70.868C30.1677 70.765 30.165 70.6619 30.1572 70.5592C30.11 70.1104 29.6812 69.88 29.2772 70.0864C29.2042 70.1228 29.1414 70.1769 29.0945 70.2436C29.0475 70.3104 29.018 70.3878 29.0084 70.4688C28.9911 70.6014 28.9836 70.7351 28.986 70.8688C28.986 71.2224 28.986 71.576 28.986 71.9296C28.986 72.0168 28.986 72.1144 28.8748 72.14C28.8168 72.1527 28.7561 72.1444 28.7036 72.1168C28.6511 72.0891 28.61 72.0438 28.5876 71.9888C28.5687 71.9333 28.5584 71.8753 28.5572 71.8168C28.5572 71.4168 28.5428 71.0168 28.5572 70.6232C28.5996 69.6816 29.4684 69.464 30.0428 69.6936C30.398 69.8352 30.5516 70.132 30.5836 70.4936C30.6052 70.7416 30.5876 70.9936 30.5876 71.244L30.586 71.2376Z" fill="#747373"/>
<path d="M40.2415 71.5521C40.4107 71.6449 40.5907 71.7164 40.7775 71.7649C40.9504 71.8054 41.1315 71.7931 41.2975 71.7297C41.3536 71.7109 41.4025 71.6751 41.4374 71.6272C41.4722 71.5793 41.4913 71.5217 41.4919 71.4625C41.5021 71.4036 41.4917 71.3429 41.4626 71.2906C41.4335 71.2384 41.3874 71.1977 41.3319 71.1753C41.1823 71.1169 41.0263 71.0737 40.8727 71.0249C40.744 70.9945 40.6178 70.9547 40.4951 70.9057C40.2119 70.7681 40.1143 70.5057 40.2135 70.2017C40.2483 70.0888 40.3095 69.9857 40.3919 69.9009C40.6847 69.6025 41.2575 69.5161 41.6231 69.7217C41.6984 69.7672 41.7652 69.8254 41.8207 69.8937C41.9007 69.9865 41.9055 70.1417 41.8471 70.1753C41.7671 70.2225 41.7095 70.1577 41.6479 70.1289C41.4453 70.0372 41.2207 70.0055 41.0007 70.0377C40.897 70.0487 40.7994 70.0918 40.7215 70.1609C40.6903 70.1858 40.6659 70.2181 40.6503 70.2548C40.6348 70.2916 40.6286 70.3316 40.6324 70.3713C40.6362 70.411 40.6499 70.4491 40.6721 70.4822C40.6944 70.5154 40.7245 70.5424 40.7599 70.5609C40.8536 70.6023 40.9504 70.6362 41.0495 70.6625C41.2167 70.7169 41.3895 70.7585 41.5519 70.8225C42.0887 71.0409 41.9983 71.7089 41.6999 71.9585C41.4015 72.2081 40.7831 72.2641 40.4495 72.0497C40.3995 72.0187 40.3551 71.9795 40.3183 71.9337C40.2824 71.8863 40.2571 71.8317 40.2439 71.7737C40.2364 71.7001 40.2356 71.6259 40.2415 71.5521Z" fill="#737070"/>
<path d="M16.6904 69.1727C16.6682 69.3012 16.6203 69.4239 16.5496 69.5335C16.3592 69.8979 16.1387 70.2458 15.8904 70.5735C15.7611 70.734 15.6974 70.9376 15.712 71.1431C15.7232 71.4079 15.712 71.6727 15.712 71.9383C15.712 72.0271 15.7032 72.1223 15.5848 72.1343C15.5262 72.1446 15.4658 72.1342 15.4139 72.1051C15.3621 72.0759 15.3218 72.0297 15.3 71.9743C15.2829 71.9031 15.2746 71.83 15.2752 71.7567C15.2752 71.5359 15.2656 71.3151 15.2752 71.0943C15.2823 70.918 15.228 70.7447 15.1216 70.6039C14.8331 70.1948 14.5876 69.757 14.3888 69.2975C14.3561 69.2319 14.3311 69.1626 14.3144 69.0911C14.3115 69.0768 14.3119 69.062 14.3155 69.0478C14.3192 69.0336 14.326 69.0204 14.3355 69.0093C14.345 68.9981 14.3568 68.9892 14.3702 68.9833C14.3836 68.9774 14.3982 68.9746 14.4128 68.9751C14.4862 68.9631 14.5616 68.9746 14.628 69.0081C14.6944 69.0416 14.7485 69.0953 14.7824 69.1615C14.8624 69.3031 14.92 69.4543 14.9992 69.5951C15.1352 69.8391 15.2776 70.0799 15.424 70.3151C15.4856 70.4151 15.5584 70.4103 15.6288 70.3095C15.8441 69.993 16.0345 69.6603 16.1984 69.3143C16.2402 69.2206 16.2866 69.129 16.3376 69.0399C16.3944 68.9511 16.4872 68.9599 16.5776 68.9887C16.6146 69.0019 16.646 69.0274 16.6665 69.0608C16.687 69.0943 16.6955 69.1338 16.6904 69.1727Z" fill="#747373"/>
<path d="M42.9404 69.1959C43.0372 69.3351 42.8876 69.5559 43.0604 69.6375C43.1828 69.6959 43.3484 69.6615 43.4948 69.6679C43.5388 69.6679 43.5828 69.6679 43.6268 69.6679C43.7164 69.6679 43.8156 69.6679 43.8188 69.7927C43.826 69.8454 43.8138 69.8988 43.7843 69.9431C43.7548 69.9873 43.7102 70.0192 43.6588 70.0327C43.5586 70.0543 43.457 70.0688 43.3548 70.0759C43.282 70.0831 43.2076 70.0759 43.134 70.0855C43.0604 70.0951 42.9916 70.1343 42.9908 70.2191C42.9908 70.6191 42.9764 71.0143 42.9964 71.4103C43.0076 71.6503 43.1652 71.7751 43.4068 71.7831C43.48 71.7803 43.5529 71.773 43.6252 71.7615C43.7508 71.7503 43.81 71.8255 43.778 71.9423C43.7653 71.9924 43.7397 72.0384 43.7038 72.0756C43.6679 72.1127 43.6229 72.1399 43.5732 72.1543C43.1028 72.3143 42.6636 72.0647 42.5684 71.5815C42.555 71.5092 42.5483 71.4359 42.5484 71.3623C42.5484 70.8327 42.5484 70.3031 42.5484 69.7727C42.5374 69.6097 42.586 69.4482 42.6852 69.3183C42.7508 69.2383 42.8244 69.1615 42.9404 69.1959Z" fill="#737070"/>
<path d="M53.7267 71.1788C53.7267 70.9876 53.7179 70.7964 53.7267 70.606C53.7324 70.414 53.7823 70.226 53.8723 70.0564C53.9585 69.9002 54.0964 69.779 54.2622 69.7136C54.4281 69.6482 54.6116 69.6426 54.7811 69.698C54.8525 69.7188 54.9142 69.7642 54.9553 69.8261C54.9965 69.888 55.0144 69.9625 55.0059 70.0364C55.0059 70.094 54.9803 70.1516 54.8971 70.134C54.8121 70.1114 54.7254 70.0954 54.6379 70.086C54.3795 70.0708 54.2483 70.166 54.1987 70.4148C54.1734 70.5592 54.1608 70.7057 54.1611 70.8524C54.1563 71.2204 54.1611 71.5876 54.1611 71.9556C54.1611 72.0292 54.1547 72.106 54.0723 72.138C54.0224 72.1508 53.9697 72.149 53.9208 72.1327C53.8718 72.1164 53.8286 72.0862 53.7963 72.046C53.7466 71.9724 53.7209 71.8852 53.7227 71.7964C53.7227 71.59 53.7227 71.3844 53.7227 71.1788H53.7267Z" fill="#747373"/>
<path d="M22.5368 71.1726C22.5368 70.9814 22.5368 70.7902 22.5368 70.5998C22.5375 70.3924 22.5969 70.1894 22.708 70.0142C22.7942 69.8755 22.9234 69.7688 23.0759 69.7101C23.2283 69.6515 23.3958 69.6443 23.5528 69.6894C23.6036 69.6991 23.6514 69.721 23.6919 69.7532C23.7325 69.7854 23.7646 69.8269 23.7856 69.8742C23.8044 69.906 23.8159 69.9417 23.8193 69.9785C23.8226 70.0153 23.8176 70.0524 23.8048 70.087C23.7592 70.1766 23.6808 70.1278 23.6136 70.1126C23.5707 70.1012 23.5272 70.0929 23.4832 70.0878C23.1672 70.0638 23.0184 70.1814 22.9832 70.503C22.9648 70.6782 22.972 70.8558 22.9704 71.0318C22.9704 71.3518 22.9704 71.6782 22.9624 72.0014C22.9624 72.1158 22.872 72.1686 22.7408 72.1342C22.6824 72.1221 22.6301 72.0898 22.5931 72.043C22.5561 71.9962 22.5367 71.9379 22.5384 71.8782C22.5312 71.643 22.5384 71.4078 22.5384 71.1726H22.5368Z" fill="#747373"/>
<path d="M40.7386 19.106C40.7042 16.0356 43.3098 13.6116 46.2186 13.6172C49.033 13.6228 51.6522 15.8916 51.6458 19.098C51.6394 22.2748 49.021 24.5596 46.1914 24.5596C43.2314 24.5596 40.7058 22.1188 40.7386 19.106Z" fill="#FFFEFE"/>
<path d="M26.028 58.9715C25.5664 58.9715 25.1544 58.9715 24.7424 58.9715C24.5216 58.9715 24.4968 58.9355 24.5176 58.7043C24.5512 58.3227 24.5976 57.9427 24.752 57.5843C25.072 56.8435 25.596 56.3043 26.392 56.1011C27.0523 55.9242 27.7534 55.9807 28.3768 56.2611C29.0752 56.5715 29.3472 57.1739 29.3368 57.8611C29.3421 58.0321 29.294 58.2005 29.1992 58.343C29.1045 58.4855 28.9678 58.595 28.808 58.6563C28.5218 58.7705 28.2215 58.8456 27.9152 58.8795C27.272 58.9739 26.6248 58.9651 26.028 58.9715Z" fill="#FCFCFC"/>
<path d="M56.8556 71.1364C56.8556 70.6564 56.8348 70.6748 57.3092 70.682C57.4849 70.6827 57.6603 70.6988 57.8332 70.73C58.0788 70.7772 58.1844 70.91 58.2044 71.1516C58.2284 71.4444 58.1316 71.626 57.8932 71.718C57.6417 71.8033 57.3715 71.8174 57.1124 71.7588C56.9524 71.7292 56.878 71.626 56.8588 71.4444C56.8572 71.4151 56.8572 71.3857 56.8588 71.3564C56.8548 71.2796 56.8556 71.21 56.8556 71.1364Z" fill="#F7F8F8"/>
<path d="M57.3513 70.3318C56.8145 70.319 56.8521 70.3566 56.8521 69.8206C56.8521 69.3782 56.8793 69.351 57.3161 69.3406C57.5057 69.3249 57.6965 69.3491 57.8761 69.4118C58.0697 69.4918 58.1545 69.635 58.1465 69.8662C58.1377 70.0846 58.0297 70.2422 57.8265 70.2846C57.6691 70.309 57.5105 70.3247 57.3513 70.3318Z" fill="#F7F8F8"/>
<path d="M25.5594 70.5241C25.5533 70.3473 25.5805 70.1709 25.6394 70.0041C25.7722 69.5641 26.101 69.3281 26.5594 69.3321C27.045 69.3369 27.369 69.5857 27.4906 70.0521C27.5867 70.3921 27.5867 70.7521 27.4906 71.0921C27.3618 71.5337 27.0306 71.7905 26.5906 71.7929C26.1194 71.7929 25.7706 71.5409 25.645 71.0889C25.5838 70.9071 25.5548 70.7159 25.5594 70.5241Z" fill="#F7F8F8"/>
<path d="M32.2092 70.7429C32.0012 70.7429 31.898 70.7469 31.7956 70.7429C31.6436 70.7365 31.598 70.6629 31.6396 70.5093C31.7644 70.0477 32.1892 69.9373 32.542 70.0557C32.6198 70.081 32.6882 70.129 32.7385 70.1934C32.7888 70.2578 32.8187 70.3358 32.8244 70.4173C32.8444 70.5709 32.7812 70.6869 32.63 70.7101C32.4572 70.7357 32.2796 70.7381 32.2092 70.7429Z" fill="#F7F8F8"/>
<path d="M51.5117 70.7202C51.5237 70.1914 51.9117 69.8938 52.3845 70.0418C52.4477 70.0611 52.5061 70.0934 52.556 70.1367C52.6059 70.18 52.6461 70.2332 52.6741 70.293C52.7781 70.5042 52.6981 70.6866 52.4693 70.7154C52.1517 70.7586 51.8298 70.7602 51.5117 70.7202Z" fill="#F7F8F8"/>
<path d="M60.2944 70.9922C60.3384 70.9922 60.3824 70.9922 60.4256 70.9922C60.572 71.0002 60.6112 71.037 60.6192 71.169C60.6192 71.213 60.6192 71.257 60.6192 71.3002C60.6192 71.5018 60.5728 71.6826 60.352 71.753C60.112 71.8282 59.888 71.8122 59.6952 71.641C59.6591 71.6048 59.6314 71.5611 59.6141 71.5129C59.5969 71.4648 59.5905 71.4134 59.5953 71.3625C59.6002 71.3116 59.6163 71.2624 59.6424 71.2185C59.6685 71.1745 59.704 71.1368 59.7464 71.1082C59.8792 71.0194 60.0056 70.9922 60.2944 70.9922Z" fill="#F7F8F8"/>
<path d="M18.8196 70.9239C18.8245 71.0638 18.805 71.2035 18.762 71.3367C18.678 71.5767 18.522 71.7431 18.2628 71.7759C18.1461 71.7953 18.0264 71.7833 17.9159 71.7411C17.8053 71.6989 17.7081 71.6281 17.634 71.5359C17.3772 71.2255 17.3548 70.6247 17.5844 70.2911C17.8468 69.9079 18.4644 69.9423 18.6948 70.3551C18.7894 70.5291 18.8326 70.7263 18.8196 70.9239Z" fill="#F7F8F8"/>
<path d="M45.986 70.9395C45.9887 71.079 45.9662 71.2177 45.9196 71.3491C45.7316 71.9051 45.086 71.8931 44.7876 71.5283C44.5332 71.2163 44.5172 70.6147 44.7524 70.2827C45.0108 69.9179 45.5972 69.9427 45.8388 70.3275C45.9436 70.514 45.9946 70.7258 45.986 70.9395Z" fill="#F7F8F8"/>
</svg>
