<svg width="40" height="40" viewBox="0 0 40 40" fill="none" xmlns="http://www.w3.org/2000/svg">
<path fill-rule="evenodd" clip-rule="evenodd" d="M15.8773 10.06C16.9436 10.0109 17.2836 10 20 10C22.7164 10 23.0564 10.0118 24.1218 10.06C25.1873 10.1082 25.9145 10.2782 26.5509 10.5245C27.2173 10.7764 27.8218 11.17 28.3218 11.6791C28.8309 12.1782 29.2236 12.7818 29.4745 13.4491C29.7218 14.0855 29.8909 14.8127 29.94 15.8764C29.9891 16.9445 30 17.2845 30 20C30 22.7164 29.9882 23.0564 29.94 24.1227C29.8918 25.1864 29.7218 25.9136 29.4745 26.55C29.2236 27.2174 28.8303 27.822 28.3218 28.3218C27.8218 28.8309 27.2173 29.2236 26.5509 29.4745C25.9145 29.7218 25.1873 29.8909 24.1236 29.94C23.0564 29.9891 22.7164 30 20 30C17.2836 30 16.9436 29.9882 15.8773 29.94C14.8136 29.8918 14.0864 29.7218 13.45 29.4745C12.7827 29.2236 12.178 28.8302 11.6782 28.3218C11.1694 27.8224 10.7757 27.2181 10.5245 26.5509C10.2782 25.9145 10.1091 25.1873 10.06 24.1236C10.0109 23.0555 10 22.7155 10 20C10 17.2836 10.0118 16.9436 10.06 15.8782C10.1082 14.8127 10.2782 14.0855 10.5245 13.4491C10.7761 12.7819 11.1701 12.1776 11.6791 11.6782C12.1782 11.1695 12.7822 10.7759 13.4491 10.5245C14.0855 10.2782 14.8127 10.1091 15.8764 10.06H15.8773ZM24.0409 11.86C22.9864 11.8118 22.67 11.8018 20 11.8018C17.33 11.8018 17.0136 11.8118 15.9591 11.86C14.9836 11.9045 14.4545 12.0673 14.1018 12.2045C13.6355 12.3864 13.3018 12.6018 12.9518 12.9518C12.62 13.2746 12.3647 13.6675 12.2045 14.1018C12.0673 14.4545 11.9045 14.9836 11.86 15.9591C11.8118 17.0136 11.8018 17.33 11.8018 20C11.8018 22.67 11.8118 22.9864 11.86 24.0409C11.9045 25.0164 12.0673 25.5455 12.2045 25.8982C12.3645 26.3318 12.62 26.7255 12.9518 27.0482C13.2745 27.38 13.6682 27.6355 14.1018 27.7955C14.4545 27.9327 14.9836 28.0955 15.9591 28.14C17.0136 28.1882 17.3291 28.1982 20 28.1982C22.6709 28.1982 22.9864 28.1882 24.0409 28.14C25.0164 28.0955 25.5455 27.9327 25.8982 27.7955C26.3645 27.6136 26.6982 27.3982 27.0482 27.0482C27.38 26.7255 27.6355 26.3318 27.7955 25.8982C27.9327 25.5455 28.0955 25.0164 28.14 24.0409C28.1882 22.9864 28.1982 22.67 28.1982 20C28.1982 17.33 28.1882 17.0136 28.14 15.9591C28.0955 14.9836 27.9327 14.4545 27.7955 14.1018C27.6136 13.6355 27.3982 13.3018 27.0482 12.9518C26.7254 12.6201 26.3325 12.3647 25.8982 12.2045C25.5455 12.0673 25.0164 11.9045 24.0409 11.86ZM18.7227 23.0827C19.4361 23.3797 20.2303 23.4197 20.9699 23.1961C21.7095 22.9725 22.3485 22.499 22.7778 21.8566C23.2071 21.2142 23.4001 20.4426 23.3237 19.6737C23.2473 18.9049 22.9064 18.1863 22.3591 17.6409C22.0102 17.2923 21.5884 17.0253 21.1239 16.8592C20.6595 16.6932 20.164 16.6321 19.6732 16.6806C19.1823 16.729 18.7083 16.8856 18.2853 17.1392C17.8622 17.3928 17.5007 17.737 17.2266 18.1471C16.9526 18.5572 16.7729 19.023 16.7005 19.5109C16.628 19.9988 16.6647 20.4966 16.8078 20.9687C16.9508 21.4407 17.1968 21.8751 17.5279 22.2407C17.8591 22.6062 18.2671 22.8938 18.7227 23.0827ZM16.3655 16.3655C16.8428 15.8882 17.4094 15.5095 18.033 15.2512C18.6566 14.9929 19.325 14.86 20 14.86C20.675 14.86 21.3434 14.9929 21.967 15.2512C22.5906 15.5095 23.1573 15.8882 23.6345 16.3655C24.1118 16.8428 24.4905 17.4094 24.7488 18.033C25.0071 18.6566 25.14 19.325 25.14 20C25.14 20.675 25.0071 21.3434 24.7488 21.967C24.4905 22.5906 24.1118 23.1573 23.6345 23.6345C22.6706 24.5985 21.3632 25.14 20 25.14C18.6368 25.14 17.3294 24.5985 16.3655 23.6345C15.4015 22.6706 14.86 21.3632 14.86 20C14.86 18.6368 15.4015 17.3294 16.3655 16.3655ZM26.28 15.6255C26.3983 15.5139 26.493 15.3797 26.5585 15.2309C26.624 15.0821 26.6589 14.9216 26.6613 14.759C26.6637 14.5964 26.6334 14.435 26.5723 14.2844C26.5111 14.1337 26.4204 13.9968 26.3054 13.8819C26.1904 13.7669 26.0536 13.6761 25.9029 13.615C25.7522 13.5539 25.5908 13.5236 25.4282 13.526C25.2657 13.5284 25.1052 13.5633 24.9564 13.6288C24.8076 13.6943 24.6734 13.789 24.5618 13.9073C24.3448 14.1373 24.226 14.4428 24.2306 14.759C24.2352 15.0752 24.3629 15.3772 24.5865 15.6008C24.8101 15.8244 25.1121 15.952 25.4282 15.9566C25.7444 15.9612 26.05 15.8424 26.28 15.6255Z" fill="white"/>
<rect x="1" y="1" width="38" height="38" rx="19" stroke="white" stroke-width="2"/>
</svg>
