<?xml version="1.0" encoding="utf-8"?>
<!-- Generator: Adobe Illustrator 24.1.3, SVG Export Plug-In . SVG Version: 6.00 Build 0)  -->
<svg version="1.1" id="Layer_1" xmlns="http://www.w3.org/2000/svg" xmlns:xlink="http://www.w3.org/1999/xlink" x="0px" y="0px"
	 viewBox="0 0 40 40" style="enable-background:new 0 0 40 40;" xml:space="preserve">
<style type="text/css">
	.st0{fill:none;stroke:#FFFFFF;stroke-width:2;}
	.st1{fill:#FFFFFF;}
</style>
<path class="st0" d="M20,1L20,1c10.5,0,19,8.5,19,19l0,0c0,10.5-8.5,19-19,19l0,0C9.5,39,1,30.5,1,20l0,0C1,9.5,9.5,1,20,1z"/>
<path class="st1" d="M32.2,13.1c-0.8,0.4-1.7,0.6-2.6,0.7c1-0.6,1.7-1.5,2-2.5c-0.9,0.5-1.9,0.9-2.9,1.1C27.9,11.6,27,11.1,26,11
	c-1-0.2-2,0-2.9,0.5c-0.9,0.5-1.6,1.2-2,2.2c-0.4,0.9-0.5,2-0.3,2.9c-1.8-0.1-3.6-0.6-5.2-1.4c-1.6-0.8-3.1-2-4.2-3.4
	c-0.4,0.7-0.6,1.5-0.6,2.3c0,0.8,0.2,1.5,0.5,2.2c0.4,0.7,0.9,1.2,1.5,1.7c-0.7,0-1.4-0.2-2.1-0.6v0.1c0,1.1,0.4,2.1,1,2.9
	c0.7,0.8,1.6,1.4,2.6,1.6c-0.7,0.2-1.4,0.2-2.1,0.1c0.3,0.9,0.9,1.7,1.6,2.3c0.8,0.6,1.7,0.9,2.7,0.9c-1.6,1.3-3.6,2-5.7,2
	c-0.4,0-0.7,0-1.1-0.1c2.1,1.3,4.5,2.1,7,2.1c8.4,0,13-7,13-13c0-0.2,0-0.4,0-0.6C30.8,14.8,31.5,14,32.2,13.1L32.2,13.1z"/>
</svg>
