<?xml version="1.0" encoding="utf-8"?>
<!-- Generator: Adobe Illustrator 24.1.3, SVG Export Plug-In . SVG Version: 6.00 Build 0)  -->
<svg version="1.1" id="Layer_1" xmlns="http://www.w3.org/2000/svg" xmlns:xlink="http://www.w3.org/1999/xlink" x="0px" y="0px"
	 viewBox="0 0 40 40" style="enable-background:new 0 0 40 40;" xml:space="preserve">
<style type="text/css">
	.st0{fill:none;stroke:#FFFFFF;stroke-width:2;}
	.st1{fill:#FFFFFF;}
</style>
<path class="st0" d="M20,1L20,1c10.5,0,19,8.5,19,19l0,0c0,10.5-8.5,19-19,19l0,0C9.5,39,1,30.5,1,20l0,0C1,9.5,9.5,1,20,1z"/>
<g>
	<path class="st1" d="M29.2,15.9c-0.1-0.4-0.3-0.7-0.6-1c-0.3-0.3-0.6-0.5-1-0.6C26.2,14,20.5,14,20.5,14c-2.4,0-4.7,0.1-7,0.4
		c-0.4,0.1-0.7,0.3-1,0.6c-0.3,0.3-0.5,0.6-0.6,1c-0.3,1.4-0.4,2.7-0.4,4.1c0,1.4,0.1,2.8,0.4,4.1c0.1,0.4,0.3,0.7,0.6,1
		c0.3,0.3,0.6,0.5,1,0.6c1.4,0.4,7,0.4,7,0.4c2.4,0,4.7-0.1,7.1-0.4c0.4-0.1,0.7-0.3,1-0.6c0.3-0.3,0.5-0.6,0.6-1
		c0.3-1.4,0.4-2.7,0.4-4.1C29.5,18.6,29.4,17.2,29.2,15.9L29.2,15.9z M18.7,22.6v-5.1l4.7,2.6L18.7,22.6z"/>
</g>
</svg>
