<svg width="77" height="77" viewBox="0 0 77 77" fill="none" xmlns="http://www.w3.org/2000/svg">
<g filter="url(#filter0_dd_5972_29657)">
<path d="M38.5 31.625V26.125H24.75V50.875H52.25V31.625H38.5ZM30.25 48.125H27.5V45.375H30.25V48.125ZM30.25 42.625H27.5V39.875H30.25V42.625ZM30.25 37.125H27.5V34.375H30.25V37.125ZM30.25 31.625H27.5V28.875H30.25V31.625ZM35.75 48.125H33V45.375H35.75V48.125ZM35.75 42.625H33V39.875H35.75V42.625ZM35.75 37.125H33V34.375H35.75V37.125ZM35.75 31.625H33V28.875H35.75V31.625ZM49.5 48.125H38.5V45.375H41.25V42.625H38.5V39.875H41.25V37.125H38.5V34.375H49.5V48.125ZM46.75 37.125H44V39.875H46.75V37.125ZM46.75 42.625H44V45.375H46.75V42.625Z" fill="url(#paint0_linear_5972_29657)"/>
</g>
<defs>
<filter id="filter0_dd_5972_29657" x="-7.5" y="-8" width="92" height="92" filterUnits="userSpaceOnUse" color-interpolation-filters="sRGB">
<feFlood flood-opacity="0" result="BackgroundImageFix"/>
<feColorMatrix in="SourceAlpha" type="matrix" values="0 0 0 0 0 0 0 0 0 0 0 0 0 0 0 0 0 0 127 0" result="hardAlpha"/>
<feOffset dx="-2" dy="2"/>
<feGaussianBlur stdDeviation="10"/>
<feComposite in2="hardAlpha" operator="out"/>
<feColorMatrix type="matrix" values="0 0 0 0 0 0 0 0 0 0 0 0 0 0 0 0 0 0 0.05 0"/>
<feBlend mode="normal" in2="BackgroundImageFix" result="effect1_dropShadow_5972_29657"/>
<feColorMatrix in="SourceAlpha" type="matrix" values="0 0 0 0 0 0 0 0 0 0 0 0 0 0 0 0 0 0 127 0" result="hardAlpha"/>
<feOffset dx="2" dy="-2"/>
<feGaussianBlur stdDeviation="10"/>
<feComposite in2="hardAlpha" operator="out"/>
<feColorMatrix type="matrix" values="0 0 0 0 0 0 0 0 0 0 0 0 0 0 0 0 0 0 0.05 0"/>
<feBlend mode="normal" in2="effect1_dropShadow_5972_29657" result="effect2_dropShadow_5972_29657"/>
<feBlend mode="normal" in="SourceGraphic" in2="effect2_dropShadow_5972_29657" result="shape"/>
</filter>
<linearGradient id="paint0_linear_5972_29657" x1="-25.2526" y1="-9.83867" x2="75.3495" y2="-29.8603" gradientUnits="userSpaceOnUse">
<stop offset="0.297847" stop-color="#009BA2"/>
<stop offset="0.634591" stop-color="#BC658D"/>
</linearGradient>
</defs>
</svg>
