<svg width="40" height="40" viewBox="0 0 40 40" fill="none" xmlns="http://www.w3.org/2000/svg">
<path d="M20.0013 13.332V3.33203H10.0013C9.11725 3.33203 8.2694 3.68322 7.64428 4.30834C7.01916 4.93346 6.66797 5.78131 6.66797 6.66536V33.332C6.66797 34.2161 7.01916 35.0639 7.64428 35.689C8.2694 36.3142 9.11725 36.6654 10.0013 36.6654H30.0013C30.8854 36.6654 31.7332 36.3142 32.3583 35.689C32.9834 35.0639 33.3346 34.2161 33.3346 33.332V16.6654H23.3346C22.4506 16.6654 21.6027 16.3142 20.9776 15.6891C20.3525 15.0639 20.0013 14.2161 20.0013 13.332ZM11.668 20.4154C11.668 20.0838 11.7997 19.7659 12.0341 19.5315C12.2685 19.2971 12.5864 19.1654 12.918 19.1654C13.2495 19.1654 13.5674 19.2971 13.8019 19.5315C14.0363 19.7659 14.168 20.0838 14.168 20.4154C14.168 20.7469 14.0363 21.0648 13.8019 21.2992C13.5674 21.5337 13.2495 21.6654 12.918 21.6654C12.5864 21.6654 12.2685 21.5337 12.0341 21.2992C11.7997 21.0648 11.668 20.7469 11.668 20.4154ZM11.668 25.4154C11.668 25.0838 11.7997 24.7659 12.0341 24.5315C12.2685 24.2971 12.5864 24.1654 12.918 24.1654C13.2495 24.1654 13.5674 24.2971 13.8019 24.5315C14.0363 24.7659 14.168 25.0838 14.168 25.4154C14.168 25.7469 14.0363 26.0648 13.8019 26.2992C13.5674 26.5337 13.2495 26.6654 12.918 26.6654C12.5864 26.6654 12.2685 26.5337 12.0341 26.2992C11.7997 26.0648 11.668 25.7469 11.668 25.4154ZM11.668 30.4154C11.668 30.0838 11.7997 29.7659 12.0341 29.5315C12.2685 29.2971 12.5864 29.1654 12.918 29.1654C13.2495 29.1654 13.5674 29.2971 13.8019 29.5315C14.0363 29.7659 14.168 30.0838 14.168 30.4154C14.168 30.7469 14.0363 31.0648 13.8019 31.2992C13.5674 31.5337 13.2495 31.6654 12.918 31.6654C12.5864 31.6654 12.2685 31.5337 12.0341 31.2992C11.7997 31.0648 11.668 30.7469 11.668 30.4154ZM16.668 20.4154C16.668 20.0838 16.7997 19.7659 17.0341 19.5315C17.2685 19.2971 17.5864 19.1654 17.918 19.1654H27.0846C27.4162 19.1654 27.7341 19.2971 27.9685 19.5315C28.2029 19.7659 28.3346 20.0838 28.3346 20.4154C28.3346 20.7469 28.2029 21.0648 27.9685 21.2992C27.7341 21.5337 27.4162 21.6654 27.0846 21.6654H17.918C17.5864 21.6654 17.2685 21.5337 17.0341 21.2992C16.7997 21.0648 16.668 20.7469 16.668 20.4154ZM16.668 25.4154C16.668 25.0838 16.7997 24.7659 17.0341 24.5315C17.2685 24.2971 17.5864 24.1654 17.918 24.1654H27.0846C27.4162 24.1654 27.7341 24.2971 27.9685 24.5315C28.2029 24.7659 28.3346 25.0838 28.3346 25.4154C28.3346 25.7469 28.2029 26.0648 27.9685 26.2992C27.7341 26.5337 27.4162 26.6654 27.0846 26.6654H17.918C17.5864 26.6654 17.2685 26.5337 17.0341 26.2992C16.7997 26.0648 16.668 25.7469 16.668 25.4154ZM16.668 30.4154C16.668 30.0838 16.7997 29.7659 17.0341 29.5315C17.2685 29.2971 17.5864 29.1654 17.918 29.1654H27.0846C27.4162 29.1654 27.7341 29.2971 27.9685 29.5315C28.2029 29.7659 28.3346 30.0838 28.3346 30.4154C28.3346 30.7469 28.2029 31.0648 27.9685 31.2992C27.7341 31.5337 27.4162 31.6654 27.0846 31.6654H17.918C17.5864 31.6654 17.2685 31.5337 17.0341 31.2992C16.7997 31.0648 16.668 30.7469 16.668 30.4154ZM22.5013 13.332V4.16536L32.5013 14.1654H23.3346C23.1136 14.1654 22.9017 14.0776 22.7454 13.9213C22.5891 13.765 22.5013 13.553 22.5013 13.332Z" fill="url(#paint0_linear_5337_31291)"/>
<defs>
<linearGradient id="paint0_linear_5337_31291" x1="-41.8194" y1="-45.1039" x2="57.5576" y2="-59.3439" gradientUnits="userSpaceOnUse">
<stop offset="0.297847" stop-color="#009BA2"/>
<stop offset="0.634591" stop-color="#BC658D"/>
</linearGradient>
</defs>
</svg>
