<svg width="56" height="56" viewBox="0 0 56 56" fill="none" xmlns="http://www.w3.org/2000/svg">
<path d="M46.75 17.5846C43.2917 17.5846 40.5 20.3763 40.5 23.8346C40.5 23.9805 40.5 24.1263 40.5208 24.2721L36.2917 25.6888C34.9583 23.168 32.5 21.3346 29.5833 20.8555V16.3555C32.25 15.6471 34.25 13.2096 34.25 10.293C34.25 6.83464 31.4583 4.04297 28 4.04297C24.5417 4.04297 21.75 6.83464 21.75 10.293C21.75 13.2096 23.75 15.6471 26.4375 16.3555V20.8555C23.5208 21.3346 21.0625 23.168 19.7292 25.6888L15.4792 24.2721C15.5 24.1263 15.5 23.9805 15.5 23.8346C15.5 20.3763 12.7083 17.5846 9.25 17.5846C5.79167 17.5846 3 20.3763 3 23.8346C3 27.293 5.79167 30.0846 9.25 30.0846C11.4583 30.0846 13.375 28.9388 14.5 27.2305L18.7292 28.6471C18.3125 31.3346 19.0833 34.1888 21 36.3346L18.0625 40.0221C17.2708 39.6471 16.4167 39.4596 15.5 39.4596C12.0417 39.4596 9.25 42.2513 9.25 45.7096C9.25 49.168 12.0417 51.9596 15.5 51.9596C18.9583 51.9596 21.75 49.168 21.75 45.7096C21.75 44.293 21.2917 43.0013 20.5 41.9596L23.4375 38.2721C26.2708 39.8555 29.7292 39.8346 32.5417 38.2721L35.4792 41.9596C34.7083 43.0013 34.25 44.293 34.25 45.7096C34.25 49.168 37.0417 51.9596 40.5 51.9596C43.9583 51.9596 46.75 49.168 46.75 45.7096C46.75 42.2513 43.9583 39.4596 40.5 39.4596C39.5833 39.4596 38.7292 39.6471 37.9375 40.0013L35 36.3138C36.9375 34.1471 37.6875 31.3138 37.2708 28.6263L41.5 27.2096C42.6042 28.918 44.5417 30.0638 46.75 30.0638C50.2083 30.0638 53 27.2721 53 23.8138C53 20.3555 50.2083 17.5846 46.75 17.5846ZM9.25 25.918C8.10417 25.918 7.16667 24.9805 7.16667 23.8346C7.16667 22.6888 8.10417 21.7513 9.25 21.7513C10.3958 21.7513 11.3333 22.6888 11.3333 23.8346C11.3333 24.9805 10.3958 25.918 9.25 25.918ZM15.5 47.793C14.3542 47.793 13.4167 46.8555 13.4167 45.7096C13.4167 44.5638 14.3542 43.6263 15.5 43.6263C16.6458 43.6263 17.5833 44.5638 17.5833 45.7096C17.5833 46.8555 16.6458 47.793 15.5 47.793ZM25.9167 10.293C25.9167 9.14714 26.8542 8.20964 28 8.20964C29.1458 8.20964 30.0833 9.14714 30.0833 10.293C30.0833 11.4388 29.1458 12.3763 28 12.3763C26.8542 12.3763 25.9167 11.4388 25.9167 10.293ZM28 35.293C25.125 35.293 22.7917 32.9596 22.7917 30.0846C22.7917 27.2096 25.125 24.8763 28 24.8763C30.875 24.8763 33.2083 27.2096 33.2083 30.0846C33.2083 32.9596 30.875 35.293 28 35.293ZM40.5 43.6263C41.6458 43.6263 42.5833 44.5638 42.5833 45.7096C42.5833 46.8555 41.6458 47.793 40.5 47.793C39.3542 47.793 38.4167 46.8555 38.4167 45.7096C38.4167 44.5638 39.3542 43.6263 40.5 43.6263ZM46.75 25.918C45.6042 25.918 44.6667 24.9805 44.6667 23.8346C44.6667 22.6888 45.6042 21.7513 46.75 21.7513C47.8958 21.7513 48.8333 22.6888 48.8333 23.8346C48.8333 24.9805 47.8958 25.918 46.75 25.918Z" fill="url(#paint0_linear_5055_29496)"/>
<defs>
<linearGradient id="paint0_linear_5055_29496" x1="-87.9138" y1="-65.5837" x2="95.8253" y2="-99.9253" gradientUnits="userSpaceOnUse">
<stop offset="0.297847" stop-color="#009BA2"/>
<stop offset="0.634591" stop-color="#BC658D"/>
</linearGradient>
</defs>
</svg>
