<svg width="30" height="30" viewBox="0 0 30 30" fill="none" xmlns="http://www.w3.org/2000/svg">
<path fill-rule="evenodd" clip-rule="evenodd" d="M11.5987 6.7995C12.4785 6.759 12.759 6.75 15 6.75C17.241 6.75 17.5215 6.75975 18.4005 6.7995C19.2795 6.83925 19.8795 6.9795 20.4045 7.18275C20.9542 7.3905 21.453 7.71525 21.8655 8.13525C22.2855 8.547 22.6095 9.045 22.8165 9.5955C23.0205 10.1205 23.16 10.7205 23.2005 11.598C23.241 12.4792 23.25 12.7597 23.25 15C23.25 17.241 23.2402 17.5215 23.2005 18.4012C23.1607 19.2787 23.0205 19.8787 22.8165 20.4037C22.6095 20.9543 22.285 21.4531 21.8655 21.8655C21.453 22.2855 20.9542 22.6095 20.4045 22.8165C19.8795 23.0205 19.2795 23.16 18.402 23.2005C17.5215 23.241 17.241 23.25 15 23.25C12.759 23.25 12.4785 23.2402 11.5987 23.2005C10.7212 23.1607 10.1212 23.0205 9.59625 22.8165C9.04569 22.6095 8.54687 22.2849 8.1345 21.8655C7.71478 21.4535 7.38999 20.9549 7.18275 20.4045C6.9795 19.8795 6.84 19.2795 6.7995 18.402C6.759 17.5207 6.75 17.2402 6.75 15C6.75 12.759 6.75975 12.4785 6.7995 11.5995C6.83925 10.7205 6.9795 10.1205 7.18275 9.5955C7.39029 9.04506 7.71534 8.54648 8.13525 8.1345C8.54703 7.71488 9.04535 7.39008 9.5955 7.18275C10.1205 6.9795 10.7205 6.84 11.598 6.7995H11.5987ZM18.3337 8.2845C17.4637 8.24475 17.2027 8.2365 15 8.2365C12.7972 8.2365 12.5362 8.24475 11.6662 8.2845C10.8615 8.32125 10.425 8.4555 10.134 8.56875C9.74925 8.71875 9.474 8.8965 9.18525 9.18525C8.91153 9.45154 8.70089 9.77571 8.56875 10.134C8.4555 10.425 8.32125 10.8615 8.2845 11.6662C8.24475 12.5362 8.2365 12.7972 8.2365 15C8.2365 17.2027 8.24475 17.4637 8.2845 18.3337C8.32125 19.1385 8.4555 19.575 8.56875 19.866C8.70075 20.2237 8.9115 20.5485 9.18525 20.8147C9.4515 21.0885 9.77625 21.2992 10.134 21.4312C10.425 21.5445 10.8615 21.6787 11.6662 21.7155C12.5362 21.7552 12.7965 21.7635 15 21.7635C17.2035 21.7635 17.4637 21.7552 18.3337 21.7155C19.1385 21.6787 19.575 21.5445 19.866 21.4312C20.2507 21.2812 20.526 21.1035 20.8147 20.8147C21.0885 20.5485 21.2992 20.2237 21.4312 19.866C21.5445 19.575 21.6787 19.1385 21.7155 18.3337C21.7552 17.4637 21.7635 17.2027 21.7635 15C21.7635 12.7972 21.7552 12.5362 21.7155 11.6662C21.6787 10.8615 21.5445 10.425 21.4312 10.134C21.2812 9.74925 21.1035 9.474 20.8147 9.18525C20.5484 8.91155 20.2243 8.70091 19.866 8.56875C19.575 8.4555 19.1385 8.32125 18.3337 8.2845ZM13.9462 17.5432C14.5347 17.7882 15.19 17.8213 15.8002 17.6368C16.4104 17.4523 16.9375 17.0617 17.2917 16.5317C17.6459 16.0017 17.805 15.3652 17.742 14.7308C17.679 14.0965 17.3978 13.5037 16.9462 13.0537C16.6584 12.7661 16.3104 12.5459 15.9272 12.4089C15.5441 12.2719 15.1353 12.2215 14.7304 12.2615C14.3254 12.3014 13.9344 12.4306 13.5854 12.6398C13.2363 12.8491 12.9381 13.1331 12.712 13.4714C12.4859 13.8097 12.3376 14.194 12.2779 14.5965C12.2181 14.999 12.2484 15.4097 12.3664 15.7991C12.4844 16.1886 12.6874 16.547 12.9605 16.8485C13.2337 17.1501 13.5704 17.3874 13.9462 17.5432ZM12.0015 12.0015C12.3953 11.6077 12.8627 11.2954 13.3772 11.0823C13.8917 10.8692 14.4431 10.7595 15 10.7595C15.5569 10.7595 16.1083 10.8692 16.6228 11.0823C17.1373 11.2954 17.6047 11.6077 17.9985 12.0015C18.3923 12.3953 18.7046 12.8627 18.9177 13.3772C19.1308 13.8917 19.2405 14.4431 19.2405 15C19.2405 15.5569 19.1308 16.1083 18.9177 16.6228C18.7046 17.1373 18.3923 17.6047 17.9985 17.9985C17.2032 18.7938 16.1247 19.2405 15 19.2405C13.8753 19.2405 12.7968 18.7938 12.0015 17.9985C11.2062 17.2032 10.7595 16.1247 10.7595 15C10.7595 13.8753 11.2062 12.7968 12.0015 12.0015ZM20.181 11.391C20.2786 11.299 20.3567 11.1883 20.4107 11.0655C20.4648 10.9427 20.4936 10.8103 20.4956 10.6762C20.4975 10.5421 20.4725 10.4089 20.4221 10.2846C20.3717 10.1603 20.2968 10.0474 20.202 9.95253C20.1071 9.85768 19.9942 9.78282 19.8699 9.73239C19.7456 9.68196 19.6124 9.65698 19.4783 9.65894C19.3442 9.66089 19.2118 9.68974 19.089 9.74377C18.9662 9.7978 18.8555 9.87592 18.7635 9.9735C18.5845 10.1633 18.4865 10.4153 18.4903 10.6762C18.4941 10.9371 18.5994 11.1862 18.7839 11.3706C18.9683 11.5551 19.2174 11.6604 19.4783 11.6642C19.7392 11.668 19.9912 11.57 20.181 11.391Z" fill="#2C333A"/>
</svg>
