<svg width="56" height="57" viewBox="0 0 56 57" fill="none" xmlns="http://www.w3.org/2000/svg">
<path d="M46 19C42.68 19 40 21.68 40 25C40 25.14 40 25.28 40.02 25.42L35.96 26.78C34.68 24.36 32.32 22.6 29.52 22.14V17.82C32.08 17.14 34 14.8 34 12C34 8.68 31.32 6 28 6C24.68 6 22 8.68 22 12C22 14.8 23.92 17.14 26.5 17.82V22.14C23.7 22.6 21.34 24.36 20.06 26.78L15.98 25.42C16 25.28 16 25.14 16 25C16 21.68 13.32 19 10 19C6.68 19 4 21.68 4 25C4 28.32 6.68 31 10 31C12.12 31 13.96 29.9 15.04 28.26L19.1 29.62C18.7 32.2 19.44 34.94 21.28 37L18.46 40.54C17.7 40.18 16.88 40 16 40C12.68 40 10 42.68 10 46C10 49.32 12.68 52 16 52C19.32 52 22 49.32 22 46C22 44.64 21.56 43.4 20.8 42.4L23.62 38.86C26.34 40.38 29.66 40.36 32.36 38.86L35.18 42.4C34.44 43.4 34 44.64 34 46C34 49.32 36.68 52 40 52C43.32 52 46 49.32 46 46C46 42.68 43.32 40 40 40C39.12 40 38.3 40.18 37.54 40.52L34.72 36.98C36.58 34.9 37.3 32.18 36.9 29.6L40.96 28.24C42.02 29.88 43.88 30.98 46 30.98C49.32 30.98 52 28.3 52 24.98C52 21.66 49.32 19 46 19ZM10 27C8.9 27 8 26.1 8 25C8 23.9 8.9 23 10 23C11.1 23 12 23.9 12 25C12 26.1 11.1 27 10 27ZM16 48C14.9 48 14 47.1 14 46C14 44.9 14.9 44 16 44C17.1 44 18 44.9 18 46C18 47.1 17.1 48 16 48ZM26 12C26 10.9 26.9 10 28 10C29.1 10 30 10.9 30 12C30 13.1 29.1 14 28 14C26.9 14 26 13.1 26 12ZM28 36C25.24 36 23 33.76 23 31C23 28.24 25.24 26 28 26C30.76 26 33 28.24 33 31C33 33.76 30.76 36 28 36ZM40 44C41.1 44 42 44.9 42 46C42 47.1 41.1 48 40 48C38.9 48 38 47.1 38 46C38 44.9 38.9 44 40 44ZM46 27C44.9 27 44 26.1 44 25C44 23.9 44.9 23 46 23C47.1 23 48 23.9 48 25C48 26.1 47.1 27 46 27Z" fill="url(#paint0_linear_5891_11403)"/>
<defs>
<linearGradient id="paint0_linear_5891_11403" x1="-83.2772" y1="-60.8416" x2="93.1123" y2="-93.8095" gradientUnits="userSpaceOnUse">
<stop offset="0.297847" stop-color="#009BA2"/>
<stop offset="0.634591" stop-color="#BC658D"/>
</linearGradient>
</defs>
</svg>
