<svg width="24" height="24" viewBox="0 0 24 24" fill="none" xmlns="http://www.w3.org/2000/svg">
<path d="M4.16727 6.33454C5.36422 6.33454 6.33454 5.36422 6.33454 4.16727C6.33454 2.97032 5.36422 2 4.16727 2C2.97032 2 2 2.97032 2 4.16727C2 5.36422 2.97032 6.33454 4.16727 6.33454Z" fill="#00838F"/>
<path d="M8.38068 7.97489V19.9989H12.114V14.0528C12.114 12.4838 12.4091 10.9643 14.3545 10.9643C16.2732 10.9643 16.297 12.7581 16.297 14.1518V19.9999H20.0322V13.4059C20.0322 10.1669 19.3349 7.67773 15.5491 7.67773C13.7315 7.67773 12.5131 8.67519 12.0149 9.61916H11.9644V7.97489H8.38068ZM2.29688 7.97489H6.03611V19.9989H2.29688V7.97489Z" fill="#00838F"/>
</svg>
