<svg width="48" height="48" viewBox="0 0 48 48" fill="none" xmlns="http://www.w3.org/2000/svg">
<path d="M24 35.0481C35.598 35.0481 45 30.102 45 24.0006C45 17.8993 35.598 12.9531 24 12.9531C12.402 12.9531 3 17.8993 3 24.0006C3 30.102 12.402 35.0481 24 35.0481Z" fill="url(#paint0_radial_5125_30034)"/>
<path d="M23.9998 34.2274C35.1446 34.2274 44.1793 29.6487 44.1793 24.0004C44.1793 18.3522 35.1446 13.7734 23.9998 13.7734C12.855 13.7734 3.82031 18.3522 3.82031 24.0004C3.82031 29.6487 12.855 34.2274 23.9998 34.2274Z" fill="#6280B6"/>
<path d="M28.0871 27.3008L29.0876 22.1497C29.2302 21.7089 29.2536 21.2382 29.1556 20.7854C29.0576 20.3326 28.8417 19.9137 28.5296 19.5712C27.6586 18.9528 26.5921 18.6728 25.5296 18.7838H23.8001L24.2966 16.2337C24.3057 16.1863 24.3041 16.1374 24.2921 16.0906C24.2801 16.0437 24.2579 16.0002 24.2271 15.9629C24.1963 15.9257 24.1576 15.8957 24.1139 15.8751C24.0702 15.8545 24.0225 15.8438 23.9741 15.8438H21.5741C21.4979 15.8437 21.4241 15.8702 21.3652 15.9186C21.3064 15.9671 21.2662 16.0345 21.2516 16.1093L20.1881 21.5782C20.1063 20.9935 19.8579 20.4447 19.4726 19.9973C19.0437 19.5677 18.5262 19.2368 17.9562 19.0277C17.3863 18.8187 16.7776 18.7364 16.1726 18.7867H11.5496C11.4734 18.7867 11.3996 18.8132 11.3407 18.8616C11.2819 18.9101 11.2417 18.9775 11.2271 19.0522L9.07612 30.1222C9.06707 30.1697 9.06861 30.2186 9.08063 30.2654C9.09265 30.3123 9.11485 30.3558 9.14566 30.3931C9.17646 30.4303 9.2151 30.4603 9.25883 30.4809C9.30255 30.5015 9.35029 30.5122 9.39862 30.5122H11.8031C11.8793 30.5123 11.9532 30.4858 12.012 30.4374C12.0708 30.3889 12.111 30.3215 12.1256 30.2467L12.6461 27.5692H14.4461C15.2409 27.5905 16.0341 27.4893 16.7981 27.2693C17.4423 27.0561 18.0313 26.7032 18.5231 26.2357C18.9261 25.8686 19.2702 25.4416 19.5431 24.9697L19.1126 27.1823C19.1036 27.2297 19.1051 27.2786 19.1171 27.3254C19.1292 27.3723 19.1514 27.4158 19.1822 27.4531C19.213 27.4903 19.2516 27.5203 19.2953 27.5409C19.3391 27.5615 19.3868 27.5722 19.4351 27.5723H21.8351C21.9113 27.5723 21.9852 27.5458 22.044 27.4974C22.1028 27.4489 22.143 27.3815 22.1576 27.3068L23.3381 21.2302H24.9791C25.6781 21.2302 25.8791 21.3698 25.9391 21.4297C25.9991 21.4897 26.0891 21.6772 25.9766 22.2832L25.0241 27.1808C25.0151 27.2282 25.0166 27.2771 25.0286 27.3239C25.0407 27.3708 25.0629 27.4143 25.0937 27.4516C25.1245 27.4888 25.1631 27.5188 25.2068 27.5394C25.2506 27.56 25.2983 27.5707 25.3466 27.5707H27.7766C27.8514 27.5678 27.9229 27.5395 27.9794 27.4904C28.0358 27.4413 28.0739 27.3744 28.0871 27.3008ZM16.9946 23.0497C16.9213 23.6795 16.6223 24.2614 16.1531 24.6877C15.5637 25.0544 14.8726 25.2231 14.1806 25.1692H13.1126L13.8851 21.1927H15.2666C16.2821 21.1927 16.6901 21.4102 16.8551 21.5917C16.981 21.8108 17.0585 22.0542 17.0826 22.3057C17.1067 22.5571 17.0767 22.8108 16.9946 23.0497Z" fill="white"/>
<path d="M38.3182 19.9983C37.8892 19.5687 37.3717 19.2379 36.8018 19.0288C36.2318 18.8197 35.6231 18.7375 35.0182 18.7878H30.3816C30.3054 18.7878 30.2316 18.8143 30.1728 18.8627C30.1139 18.9111 30.0738 18.9785 30.0592 19.0533L27.9082 30.1233C27.8991 30.1708 27.9006 30.2197 27.9127 30.2665C27.9247 30.3133 27.9469 30.3569 27.9777 30.3941C28.0085 30.4314 28.0471 30.4614 28.0909 30.482C28.1346 30.5026 28.1823 30.5133 28.2307 30.5133H30.6427C30.7189 30.5133 30.7927 30.4869 30.8515 30.4384C30.9104 30.39 30.9505 30.3226 30.9651 30.2478L31.4857 27.5703H33.2857C34.0804 27.5915 34.8737 27.4903 35.6377 27.2703C36.2818 27.0572 36.8709 26.7043 37.3627 26.2368C38.2049 25.4778 38.7723 24.4615 38.9767 23.3463C39.138 22.7758 39.1625 22.1752 39.0481 21.5935C38.9337 21.0117 38.6836 20.4652 38.3182 19.9983ZM35.8177 23.0493C35.7443 23.679 35.4454 24.2609 34.9762 24.6873C34.3853 25.0543 33.6925 25.2225 32.9992 25.1673H31.9342L32.7067 21.1908H34.0882C35.1037 21.1908 35.5117 21.4083 35.6767 21.5898C35.803 21.8089 35.8809 22.0525 35.9052 22.3043C35.9296 22.556 35.8997 22.8101 35.8177 23.0493Z" fill="white"/>
<path d="M15.2661 20.8614C15.5898 20.8207 15.9183 20.8445 16.2326 20.9315C16.547 21.0186 16.841 21.1671 17.0976 21.3684C17.2632 21.6234 17.3688 21.9125 17.4065 22.2142C17.4442 22.5158 17.4129 22.8221 17.3151 23.1099C17.2294 23.8186 16.8868 24.4713 16.3521 24.9444C15.7073 25.3597 14.9451 25.5545 14.1801 25.4994H12.7131L13.6131 20.8659L15.2661 20.8614ZM9.39062 30.1854H11.8026L12.3741 27.2424H14.4396C15.1999 27.2632 15.9588 27.1665 16.6896 26.9559C17.2894 26.7579 17.8376 26.4289 18.2946 25.9929C19.0856 25.2813 19.6184 24.3276 19.8096 23.2809C19.961 22.7604 19.9876 22.2116 19.8873 21.6789C19.7869 21.1462 19.5625 20.6447 19.2321 20.2149C18.8338 19.8209 18.3543 19.5186 17.8271 19.3289C17.2999 19.1393 16.7377 19.0669 16.1796 19.1169H11.5491L9.39062 30.1854Z" fill="#000004"/>
<path d="M21.5804 16.1719H23.9804L23.3999 19.1149H25.5314C26.5104 19.0124 27.4939 19.2612 28.3064 19.8169C28.5753 20.1225 28.7591 20.4935 28.8394 20.8927C28.9197 21.2918 28.8937 21.705 28.7639 22.0909L27.7634 27.2419H25.3349L26.2874 22.3444C26.3537 22.1574 26.3774 21.958 26.3566 21.7608C26.3358 21.5635 26.2712 21.3734 26.1674 21.2044C25.82 20.9555 25.391 20.8483 24.9674 20.9044H23.0549L21.8219 27.2464H19.4219L21.5804 16.1719Z" fill="#000004"/>
<path d="M34.0903 20.8614C34.414 20.8207 34.7425 20.8445 35.0569 20.9315C35.3712 21.0186 35.6652 21.1671 35.9218 21.3684C36.0874 21.6234 36.193 21.9125 36.2307 22.2142C36.2684 22.5158 36.2371 22.8221 36.1393 23.1099C36.0536 23.8186 35.711 24.4713 35.1763 24.9444C34.5303 25.3607 33.7663 25.5555 32.9998 25.4994H31.5328L32.4328 20.8659L34.0903 20.8614ZM28.2148 30.1854H30.6268L31.1983 27.2424H33.2638C34.0241 27.2632 34.783 27.1665 35.5138 26.9559C36.1136 26.7579 36.6619 26.4289 37.1188 25.9929C37.9099 25.2813 38.4427 24.3276 38.6338 23.2809C38.7852 22.7604 38.8118 22.2116 38.7115 21.6789C38.6111 21.1462 38.3867 20.6447 38.0563 20.2149C37.658 19.8209 37.1785 19.5186 36.6513 19.3289C36.1241 19.1393 35.5619 19.0669 35.0038 19.1169H30.3658L28.2148 30.1854Z" fill="#000004"/>
<defs>
<radialGradient id="paint0_radial_5125_30034" cx="0" cy="0" r="1" gradientUnits="userSpaceOnUse" gradientTransform="translate(15.609 16.8381) scale(27.576)">
<stop stop-color="white"/>
<stop offset="0.5" stop-color="#4C6B96"/>
<stop offset="1" stop-color="#231F20"/>
</radialGradient>
</defs>
</svg>
