<svg width="40" height="40" viewBox="0 0 40 40" fill="none" xmlns="http://www.w3.org/2000/svg">
<path d="M32.888 13.7224C32.4731 13.5796 32.0431 13.4445 31.6004 13.3167C31.6732 13.0197 31.7399 12.7266 31.7993 12.4384C32.774 7.70701 32.1367 3.89535 29.9605 2.64039C27.8738 1.43705 24.4611 2.69172 21.0145 5.69122C20.6831 5.97964 20.3507 6.28502 20.0185 6.60506C19.7972 6.39331 19.5762 6.18869 19.3557 5.99296C15.7436 2.78571 12.1229 1.43413 9.94884 2.69272C7.86412 3.89955 7.24675 7.48288 8.12414 11.9669C8.20887 12.4 8.30791 12.8423 8.41991 13.292C7.90748 13.4374 7.41279 13.5925 6.93946 13.7575C2.70458 15.2339 0 17.5479 0 19.9481C0 22.4271 2.90337 24.9135 7.31432 26.4212C7.66242 26.5401 8.02361 26.6526 8.39584 26.7594C8.27501 27.2458 8.16992 27.7224 8.08171 28.1873C7.24511 32.5934 7.89844 36.0921 9.97761 37.2913C12.1252 38.5298 15.7295 37.2568 19.2391 34.1889C19.5165 33.9464 19.7949 33.6893 20.0738 33.4197C20.4352 33.7678 20.7962 34.0972 21.1551 34.4062C24.5546 37.3316 27.9122 38.5129 29.9894 37.3103C32.1349 36.0683 32.8321 32.3099 31.9269 27.7372C31.8578 27.388 31.7773 27.0312 31.687 26.6681C31.9401 26.5932 32.1886 26.516 32.4309 26.4357C37.0165 24.9164 40 22.4602 40 19.9481C40 17.5392 37.2082 15.2097 32.888 13.7224ZM31.8934 24.8137C31.6747 24.8861 31.4503 24.9561 31.2216 25.0239C30.7154 23.4213 30.0321 21.7171 29.1961 19.9565C29.9939 18.2377 30.6507 16.5553 31.1428 14.9631C31.552 15.0815 31.9491 15.2064 32.3318 15.3382C36.0333 16.6124 38.2912 18.4964 38.2912 19.9481C38.2912 21.4944 35.8528 23.5018 31.8934 24.8137ZM30.2506 28.0691C30.6509 30.0911 30.708 31.9192 30.4429 33.3483C30.2047 34.6324 29.7256 35.4886 29.1332 35.8315C27.8726 36.5612 25.1768 35.6127 22.2696 33.1109C21.9363 32.8241 21.6006 32.5179 21.2638 32.1938C22.3909 30.9611 23.5173 29.5281 24.6167 27.9366C26.5504 27.765 28.3773 27.4844 30.0341 27.1015C30.1157 27.4306 30.1881 27.7534 30.2506 28.0691ZM13.6369 35.7054C12.4053 36.1404 11.4244 36.1528 10.8314 35.8109C9.56971 35.0832 9.04518 32.2741 9.76066 28.5059C9.84261 28.0744 9.94016 27.6311 10.0526 27.178C11.6912 27.5403 13.5047 27.8011 15.443 27.9582C16.5498 29.5156 17.7088 30.947 18.8768 32.2004C18.6216 32.4468 18.3674 32.6813 18.1146 32.9023C16.5627 34.2589 15.0075 35.2213 13.6369 35.7054ZM7.86697 24.8042C5.91653 24.1376 4.30579 23.2711 3.2017 22.3257C2.2096 21.4761 1.70872 20.6326 1.70872 19.9481C1.70872 18.4916 3.88023 16.6338 7.50193 15.3711C7.94137 15.2178 8.40139 15.0735 8.87879 14.9378C9.37932 16.566 10.0359 18.2683 10.8283 19.9897C10.0257 21.7367 9.35974 23.4661 8.85429 25.1134C8.51396 25.0155 8.18424 24.9126 7.86697 24.8042ZM9.8011 11.6387C9.04938 7.79694 9.54863 4.89884 10.8049 4.17161C12.1431 3.39688 15.1023 4.50147 18.2211 7.27078C18.4204 7.44778 18.6206 7.63304 18.8213 7.82471C17.6591 9.07262 16.5107 10.4933 15.4138 12.0415C13.5325 12.2159 11.7317 12.496 10.0761 12.871C9.97198 12.4523 9.87978 12.0409 9.8011 11.6387ZM27.0553 15.8992C26.6595 15.2156 26.2532 14.5481 25.8389 13.8988C27.1152 14.0601 28.338 14.2743 29.4863 14.5364C29.1415 15.6413 28.7118 16.7965 28.206 17.9807C27.8432 17.2919 27.4594 16.5973 27.0553 15.8992ZM20.0191 9.04592C20.8073 9.89982 21.5966 10.8532 22.3729 11.8876C21.5906 11.8506 20.7986 11.8314 20 11.8314C19.209 11.8314 18.4228 11.8502 17.6453 11.8865C18.4224 10.8617 19.2186 9.90964 20.0191 9.04592ZM12.9378 15.911C12.5424 16.5966 12.1658 17.2874 11.8086 17.9795C11.311 16.7993 10.8853 15.6388 10.5376 14.5183C11.6788 14.2629 12.8959 14.0541 14.164 13.8958C13.7439 14.5511 13.3342 15.2235 12.9378 15.9109V15.911ZM14.2005 26.1223C12.8903 25.9762 11.655 25.7781 10.514 25.5297C10.8673 24.3892 11.3024 23.2039 11.8106 21.9984C12.1686 22.6899 12.5468 23.381 12.9446 24.0681H12.9446C13.3498 24.768 13.7696 25.4537 14.2005 26.1223ZM20.0664 30.9708C19.2565 30.097 18.4486 29.1304 17.6597 28.0906C18.4256 28.1207 19.2064 28.1361 20 28.1361C20.8153 28.1361 21.6213 28.1177 22.4146 28.0824C21.6357 29.1408 20.8492 30.1089 20.0664 30.9708ZM28.2223 21.9369C28.757 23.1555 29.2077 24.3346 29.5655 25.4557C28.4057 25.7203 27.1536 25.9334 25.8342 26.0917C26.2495 25.4337 26.6594 24.7547 27.0621 24.0563C27.4696 23.3497 27.8565 22.6421 28.2223 21.9369ZM25.582 23.2027C24.9567 24.2868 24.3148 25.3218 23.6631 26.2987C22.4761 26.3836 21.2498 26.4273 20 26.4273C18.7552 26.4273 17.5444 26.3886 16.3784 26.3129C15.7005 25.3232 15.0446 24.2852 14.4233 23.212H14.4234C13.8038 22.1417 13.2335 21.0624 12.7167 19.9891C13.2333 18.9134 13.8022 17.8329 14.4182 16.7645L14.4181 16.7647C15.0358 15.6935 15.686 14.6606 16.3576 13.677C17.5473 13.5871 18.7671 13.5402 19.9999 13.5402H20C21.2384 13.5402 22.4598 13.5874 23.649 13.6782C24.3105 14.6545 24.9562 15.6841 25.5763 16.7555C26.2035 17.8388 26.7797 18.9122 27.3007 19.9649C26.7813 21.0356 26.2064 22.1198 25.582 23.2027ZM29.107 4.12077C30.4465 4.89321 30.9674 8.00847 30.1258 12.0935C30.0721 12.3542 30.0116 12.6197 29.946 12.8888C28.2865 12.5059 26.4844 12.2209 24.5977 12.0439C23.4986 10.4787 22.3596 9.05582 21.2164 7.82392C21.5237 7.52823 21.8307 7.24628 22.1363 6.98021C25.0894 4.41027 27.8495 3.3956 29.107 4.12077ZM20 16.3763C21.9727 16.3763 23.5719 17.9754 23.5719 19.9481C23.5719 21.9208 21.9727 23.52 20 23.52C18.0273 23.52 16.4281 21.9208 16.4281 19.9481C16.4281 17.9754 18.0273 16.3763 20 16.3763Z" fill="#00D8FF"/>
</svg>
