<svg width="56" height="57" viewBox="0 0 56 57" fill="none" xmlns="http://www.w3.org/2000/svg">
<path d="M28 9C26.0222 9 24.0888 9.58649 22.4443 10.6853C20.7998 11.7841 19.5181 13.3459 18.7612 15.1732C18.0043 17.0004 17.8063 19.0111 18.1921 20.9509C18.578 22.8907 19.5304 24.6725 20.9289 26.0711C22.3275 27.4696 24.1093 28.422 26.0491 28.8079C27.9889 29.1937 29.9996 28.9957 31.8268 28.2388C33.6541 27.4819 35.2159 26.2002 36.3147 24.5557C37.4135 22.9112 38 20.9778 38 19C38 16.3478 36.9464 13.8043 35.0711 11.9289C33.1957 10.0536 30.6522 9 28 9V9ZM28 25C26.8133 25 25.6533 24.6481 24.6666 23.9888C23.6799 23.3295 22.9108 22.3925 22.4567 21.2961C22.0026 20.1997 21.8838 18.9933 22.1153 17.8295C22.3468 16.6656 22.9182 15.5965 23.7574 14.7574C24.5965 13.9182 25.6656 13.3468 26.8295 13.1153C27.9933 12.8838 29.1997 13.0026 30.2961 13.4567C31.3925 13.9108 32.3295 14.6799 32.9888 15.6666C33.6481 16.6533 34 17.8133 34 19C34 20.5913 33.3679 22.1174 32.2426 23.2426C31.1174 24.3679 29.5913 25 28 25V25ZM46 47V45C46 41.287 44.525 37.726 41.8995 35.1005C39.274 32.475 35.713 31 32 31H24C20.287 31 16.726 32.475 14.1005 35.1005C11.475 37.726 10 41.287 10 45V47H14V45C14 42.3478 15.0536 39.8043 16.9289 37.9289C18.8043 36.0536 21.3478 35 24 35H32C34.6522 35 37.1957 36.0536 39.0711 37.9289C40.9464 39.8043 42 42.3478 42 45V47H46Z" fill="url(#paint0_linear_5891_2407)"/>
<defs>
<linearGradient id="paint0_linear_5891_2407" x1="-55.4579" y1="-46.2169" x2="77.6236" y2="-68.7995" gradientUnits="userSpaceOnUse">
<stop offset="0.297847" stop-color="#009BA2"/>
<stop offset="0.634591" stop-color="#BC658D"/>
</linearGradient>
</defs>
</svg>
