<?xml version="1.0" encoding="utf-8"?>
<!-- Generator: Adobe Illustrator 24.1.3, SVG Export Plug-In . SVG Version: 6.00 Build 0)  -->
<svg version="1.1" id="Layer_1" xmlns="http://www.w3.org/2000/svg" xmlns:xlink="http://www.w3.org/1999/xlink" x="0px" y="0px"
	 viewBox="0 0 30 30" style="enable-background:new 0 0 30 30;" xml:space="preserve">
<style type="text/css">
	.st0{clip-path:url(#SVGID_2_);}
	.st1{fill-rule:evenodd;clip-rule:evenodd;fill:#2C333A;}
</style>
<g>
	<defs>
		<rect id="SVGID_1_" x="6" y="6" width="18" height="18"/>
	</defs>
	<clipPath id="SVGID_2_">
		<use xlink:href="#SVGID_1_"  style="overflow:visible;"/>
	</clipPath>
	<g class="st0">
		<path class="st1" d="M19.1,16.8c-0.2-0.1-1.3-0.7-1.5-0.7C17.3,16,17.2,16,17,16.2c-0.1,0.2-0.6,0.7-0.7,0.9
			c-0.1,0.1-0.3,0.2-0.5,0.1c-0.2-0.1-0.9-0.3-1.8-1.1c-0.7-0.6-1.1-1.3-1.2-1.5c-0.1-0.2,0-0.3,0.1-0.5c0.1-0.1,0.2-0.3,0.3-0.4
			c0.1-0.1,0.1-0.2,0.2-0.4c0.1-0.1,0-0.3,0-0.4c-0.1-0.1-0.5-1.2-0.7-1.7c-0.2-0.4-0.4-0.4-0.5-0.4c-0.1,0-0.3,0-0.4,0
			c-0.1,0-0.4,0.1-0.6,0.3c-0.2,0.2-0.8,0.8-0.8,1.9c0,1.1,0.8,2.2,0.9,2.3c0.1,0.1,1.6,2.4,3.8,3.4c0.5,0.2,0.9,0.4,1.3,0.5
			c0.5,0.2,1,0.1,1.4,0.1c0.4-0.1,1.3-0.5,1.5-1.1c0.2-0.5,0.2-1,0.1-1.1C19.4,17,19.3,16.9,19.1,16.8L19.1,16.8z M15,22.3L15,22.3
			c-1.3,0-2.6-0.4-3.8-1l-0.3-0.2l-2.8,0.7l0.7-2.7l-0.2-0.3c-0.7-1.2-1.1-2.5-1.1-3.9c0-4.1,3.3-7.4,7.4-7.4c2,0,3.8,0.8,5.2,2.2
			c0.7,0.7,1.2,1.5,1.6,2.4c0.4,0.9,0.6,1.9,0.6,2.8C22.4,19,19.1,22.3,15,22.3z M21.3,8.6c-0.8-0.8-1.8-1.5-2.9-1.9
			C17.3,6.2,16.2,6,15,6c-4.9,0-8.9,4-8.9,8.9c0,1.6,0.4,3.1,1.2,4.5L6,24l4.7-1.2c1.3,0.7,2.8,1.1,4.3,1.1h0c4.9,0,8.9-4,8.9-8.9
			c0-1.2-0.2-2.3-0.7-3.4C22.8,10.4,22.1,9.4,21.3,8.6z"/>
	</g>
</g>
</svg>
