<?xml version="1.0" encoding="utf-8"?>
<!-- Generator: Adobe Illustrator 24.1.3, SVG Export Plug-In . SVG Version: 6.00 Build 0)  -->
<svg version="1.1" id="Layer_1" xmlns="http://www.w3.org/2000/svg" xmlns:xlink="http://www.w3.org/1999/xlink" x="0px" y="0px"
	 viewBox="0 0 30 30" style="enable-background:new 0 0 30 30;" xml:space="preserve">
<style type="text/css">
	.st0{fill:none;}
	.st1{fill:none;stroke:#2C333A;stroke-width:1.4;stroke-miterlimit:10;}
	.st2{fill:#2C333A;}
</style>
<rect x="6" y="6" class="st0" width="18" height="18"/>
<path class="st1" d="M23,11.2c-0.1-0.3-0.3-0.6-0.5-0.9c-0.3-0.2-0.6-0.4-0.9-0.5C20.2,9.4,15,9.4,15,9.4c-2.2,0-4.4,0.1-6.5,0.3
	C8.1,9.9,7.8,10,7.5,10.3c-0.3,0.2-0.4,0.6-0.5,0.9c-0.2,1.3-0.3,2.5-0.3,3.8c0,1.3,0.1,2.6,0.3,3.8c0.1,0.3,0.3,0.6,0.5,0.9
	c0.3,0.2,0.6,0.4,0.9,0.5c1.3,0.3,6.5,0.3,6.5,0.3c2.2,0,4.4-0.1,6.5-0.3c0.3-0.1,0.7-0.3,0.9-0.5c0.3-0.2,0.4-0.6,0.5-0.9
	c0.2-1.3,0.4-2.5,0.3-3.8C23.4,13.7,23.2,12.4,23,11.2L23,11.2z"/>
<polygon class="st2" points="13.2,17.6 13.2,12.4 17.9,15 "/>
</svg>
